<svg width="24" height="26" viewBox="0 0 24 26" fill="none" xmlns="http://www.w3.org/2000/svg">
<path d="M10.589 13.0638C14.3222 13.0636 15.6654 9.48146 16.017 6.53898C16.4502 2.91417 14.6615 0.186035 10.589 0.186035C6.51708 0.186035 4.7275 2.91396 5.161 6.53898C5.51297 9.48146 6.8558 13.0641 10.589 13.0638Z" fill="#08A652"/>
<path d="M18.7512 14.555C18.8713 14.555 18.9907 14.5585 19.1092 14.5648C18.9316 14.3219 18.7259 14.1077 18.4853 13.9355C17.768 13.4224 16.8389 13.2541 16.0176 12.9448C15.6178 12.7943 15.2598 12.6448 14.9238 12.4746C13.7895 13.6667 12.3103 14.2903 10.5878 14.2905C8.86594 14.2905 7.38692 13.6669 6.25277 12.4746C5.91669 12.6449 5.55861 12.7943 5.1589 12.9448C4.3376 13.2541 3.40861 13.4224 2.69124 13.9355C1.45065 14.8229 1.13004 16.8191 0.87814 18.1808C0.670249 19.3049 0.530586 20.4519 0.489822 21.5937C0.458242 22.4781 0.913878 22.6021 1.68592 22.8691C2.6526 23.2032 3.65073 23.4512 4.65557 23.6546C6.59616 24.0473 8.59649 24.3491 10.5882 24.3625C11.5533 24.3559 12.5203 24.2813 13.4816 24.1619C12.7698 23.1736 12.3523 21.9764 12.3523 20.6873C12.3524 17.3059 15.2229 14.555 18.7512 14.555Z" fill="#08A652"/>
<path d="M18.7519 15.7812C15.9248 15.7812 13.6328 17.9778 13.6328 20.6871C13.6328 23.3964 15.9248 25.5929 18.7519 25.5929C21.5791 25.5929 23.8711 23.3964 23.8711 20.6871C23.8711 17.9777 21.5791 15.7812 18.7519 15.7812ZM20.9916 21.5288H19.6302V22.8333C19.6302 23.2982 19.237 23.6751 18.752 23.6751C18.2669 23.6751 17.8736 23.2982 17.8736 22.8333V21.5288H16.5124C16.0273 21.5288 15.634 21.1519 15.634 20.687C15.634 20.2221 16.0272 19.8452 16.5124 19.8452H17.8736V18.5407C17.8736 18.0758 18.2669 17.6989 18.752 17.6989C19.2371 17.6989 19.6302 18.0758 19.6302 18.5407V19.8452H20.9916C21.4767 19.8452 21.8699 20.2221 21.8699 20.687C21.8699 21.152 21.4767 21.5288 20.9916 21.5288Z" fill="#08A652"/>
</svg>
