<svg width="27" height="26" viewBox="0 0 27 26" fill="none" xmlns="http://www.w3.org/2000/svg">
<g clip-path="url(#clip0_460_6139)">
<path d="M25.6901 24.5261H25.1608V9.17606C25.1608 8.88388 24.9237 8.64673 24.6315 8.64673H21.4556C21.1634 8.64673 20.9263 8.88388 20.9263 9.17606V24.5261H18.809V15.5278C18.809 15.2356 18.5719 14.9985 18.2797 14.9985H15.1038C14.8116 14.9985 14.5745 15.2356 14.5745 15.5278V24.5261H12.4572V13.4105C12.4572 13.1184 12.2201 12.8812 11.9279 12.8812H8.75203C8.45985 12.8812 8.2227 13.1184 8.2227 13.4105V24.5261H6.10544V18.7037C6.10544 18.4115 5.86829 18.1743 5.57611 18.1743H2.40044C2.10826 18.1743 1.87111 18.4115 1.87111 18.7037V24.5261H1.34183C1.04965 24.5261 0.8125 24.7632 0.8125 25.0554C0.8125 25.3476 1.04965 25.5847 1.34183 25.5847H2.40044H5.57631H8.75218H11.9281H15.1039H18.2798H21.4557H24.6315H25.6901C25.9823 25.5847 26.2195 25.3476 26.2195 25.0554C26.2195 24.7632 25.9823 24.5261 25.6901 24.5261Z" fill="#08A652"/>
<path d="M23.0455 0.178223C21.8779 0.178223 20.9283 1.12781 20.9283 2.29549C20.9283 2.68716 21.0426 3.04921 21.2279 3.36471L17.763 6.82959C17.4475 6.6443 17.0855 6.52997 16.6938 6.52997C16.03 6.52997 15.4435 6.84334 15.0551 7.32289L12.454 6.58078C12.454 6.56386 12.4593 6.54798 12.4593 6.52997C12.4593 5.36229 11.5097 4.4127 10.3421 4.4127C9.17438 4.4127 8.22479 5.36229 8.22479 6.52997C8.22479 6.83803 8.29362 7.12807 8.41217 7.39167L5.10395 10.0308C4.78006 9.82756 4.4 9.70584 3.99031 9.70584C2.82263 9.70584 1.87305 10.6554 1.87305 11.8231C1.87305 12.9908 2.82263 13.9404 3.99031 13.9404C5.15799 13.9404 6.10758 12.9908 6.10758 11.8231C6.10758 11.4515 6.00277 11.1064 5.83341 10.8026L9.07597 8.2164C9.43063 8.48318 9.86573 8.64728 10.3421 8.64728C11.1181 8.64728 11.7913 8.22276 12.1597 7.5982L14.6126 8.29794C14.5925 8.41227 14.5766 8.52764 14.5766 8.64728C14.5766 9.81496 15.5262 10.7645 16.6939 10.7645C17.8615 10.7645 18.8111 9.81496 18.8111 8.64728C18.8111 8.25561 18.6968 7.89356 18.5115 7.57805L21.9775 4.11214C22.2919 4.29847 22.6539 4.4128 23.0456 4.4128C24.2133 4.4128 25.1629 3.46322 25.1629 2.29554C25.1628 1.12781 24.2132 0.178223 23.0455 0.178223Z" fill="#08A652"/>
</g>
<defs>
<clipPath id="clip0_460_6139">
<rect width="25.407" height="25.407" fill="white" transform="translate(0.814453 0.177979)"/>
</clipPath>
</defs>
</svg>
