<svg width="27" height="24" viewBox="0 0 27 24" fill="none" xmlns="http://www.w3.org/2000/svg">
<path d="M19.0064 4.41317L16.7697 0.581377C16.6633 0.399111 16.4884 0.266363 16.284 0.213685C16.0806 0.163114 15.8626 0.192614 15.6813 0.30113L8.84375 4.40368L19.0064 4.41317Z" fill="#08A652"/>
<path d="M3.97317 5.4574C3.39372 5.4574 2.91962 4.98329 2.91962 4.40384C2.91962 3.82438 3.39372 3.35028 3.97317 3.35028H7.52366L11.0425 1.24316H3.97317C2.41391 1.24316 1.11803 2.38101 0.865178 3.87706C0.844107 3.96134 0.8125 4.04563 0.8125 4.14045V20.2072C0.8125 21.9456 2.2348 23.3679 3.97317 23.3679H21.8837C23.0426 23.3679 23.9908 22.4197 23.9908 21.2608V19.1536H21.3569C18.7441 19.1536 16.6159 17.0255 16.6159 14.4126C16.6159 11.7998 18.7441 9.67163 21.3569 9.67163H23.9908V7.56451C23.9908 6.4056 23.0426 5.4574 21.8837 5.4574H3.97317ZM20.8301 3.35028C20.8301 2.28619 20.0399 1.4012 19.0074 1.26424L20.8301 4.40384V3.35028Z" fill="#08A652"/>
<path d="M25.3068 11.2517H21.356C19.6134 11.2517 18.1953 12.6698 18.1953 14.4124C18.1953 16.155 19.6134 17.5731 21.356 17.5731H25.3068C25.743 17.5731 26.097 17.2191 26.097 16.7829V12.0419C26.097 11.6057 25.743 11.2517 25.3068 11.2517ZM21.356 15.4659C20.7744 15.4659 20.3024 14.9939 20.3024 14.4124C20.3024 13.8308 20.7744 13.3588 21.356 13.3588C21.9376 13.3588 22.4095 13.8308 22.4095 14.4124C22.4095 14.9939 21.9376 15.4659 21.356 15.4659Z" fill="#08A652"/>
</svg>
