<svg width="102" height="36" viewBox="0 0 102 36" fill="none" xmlns="http://www.w3.org/2000/svg">
<path d="M8.6582 20L8.53431 21.0029L4.17614 20.673L8.6582 15.5L9.1582 17L8.6582 20Z" fill="#CA2840"/>
<path d="M20.0605 11.8867V14.6289H11.1543V11.8867H20.0605ZM12.1973 4.9375V22H8.68164V4.9375H12.1973ZM22.5684 4.9375V22H19.0645V4.9375H22.5684ZM25.627 4.9375H31.9902C33.2949 4.9375 34.416 5.13281 35.3535 5.52344C36.2988 5.91406 37.0254 6.49219 37.5332 7.25781C38.041 8.02344 38.2949 8.96484 38.2949 10.082C38.2949 10.9961 38.1387 11.7812 37.8262 12.4375C37.5215 13.0859 37.0879 13.6289 36.5254 14.0664C35.9707 14.4961 35.3184 14.8398 34.5684 15.0977L33.4551 15.6836H27.9238L27.9004 12.9414H32.0137C32.6309 12.9414 33.1426 12.832 33.5488 12.6133C33.9551 12.3945 34.2598 12.0898 34.4629 11.6992C34.6738 11.3086 34.7793 10.8555 34.7793 10.3398C34.7793 9.79297 34.6777 9.32031 34.4746 8.92188C34.2715 8.52344 33.9629 8.21875 33.5488 8.00781C33.1348 7.79688 32.6152 7.69141 31.9902 7.69141H29.1426V22H25.627V4.9375ZM35.166 22L31.2754 14.3945L34.9902 14.3711L38.9277 21.8359V22H35.166ZM47.4473 13.3516V16H40.8262V13.3516H47.4473ZM61.8496 11.8867V14.6289H52.9434V11.8867H61.8496ZM53.9863 4.9375V22H50.4707V4.9375H53.9863ZM64.3574 4.9375V22H60.8535V4.9375H64.3574ZM74.7051 18.9648V9.32031H78.0801V22H74.9043L74.7051 18.9648ZM75.0801 16.3633L76.0762 16.3398C76.0762 17.1836 75.9785 17.9688 75.7832 18.6953C75.5879 19.4141 75.2949 20.0391 74.9043 20.5703C74.5137 21.0938 74.0215 21.5039 73.4277 21.8008C72.834 22.0898 72.1348 22.2344 71.3301 22.2344C70.7129 22.2344 70.1426 22.1484 69.6191 21.9766C69.1035 21.7969 68.6582 21.5195 68.2832 21.1445C67.916 20.7617 67.627 20.2734 67.416 19.6797C67.2129 19.0781 67.1113 18.3555 67.1113 17.5117V9.32031H70.4863V17.5352C70.4863 17.9102 70.5293 18.2266 70.6152 18.4844C70.709 18.7422 70.8379 18.9531 71.002 19.1172C71.166 19.2812 71.3574 19.3984 71.5762 19.4688C71.8027 19.5391 72.0527 19.5742 72.3262 19.5742C73.0215 19.5742 73.5684 19.4336 73.9668 19.1523C74.373 18.8711 74.6582 18.4883 74.8223 18.0039C74.9941 17.5117 75.0801 16.9648 75.0801 16.3633ZM83.9629 12.0273V22H80.5879V9.32031H83.752L83.9629 12.0273ZM83.4707 15.2148H82.5566C82.5566 14.2773 82.6777 13.4336 82.9199 12.6836C83.1621 11.9258 83.502 11.2812 83.9395 10.75C84.377 10.2109 84.8965 9.80078 85.498 9.51953C86.1074 9.23047 86.7871 9.08594 87.5371 9.08594C88.1309 9.08594 88.6738 9.17188 89.166 9.34375C89.6582 9.51562 90.0801 9.78906 90.4316 10.1641C90.791 10.5391 91.0645 11.0352 91.252 11.6523C91.4473 12.2695 91.5449 13.0234 91.5449 13.9141V22H88.1465V13.9023C88.1465 13.3398 88.0684 12.9023 87.9121 12.5898C87.7559 12.2773 87.5254 12.0586 87.2207 11.9336C86.9238 11.8008 86.5566 11.7344 86.1191 11.7344C85.666 11.7344 85.2715 11.8242 84.9355 12.0039C84.6074 12.1836 84.334 12.4336 84.1152 12.7539C83.9043 13.0664 83.7441 13.4336 83.6348 13.8555C83.5254 14.2773 83.4707 14.7305 83.4707 15.2148ZM100.322 9.32031V11.7109H92.9395V9.32031H100.322ZM94.7676 6.19141H98.1426V18.1797C98.1426 18.5469 98.1895 18.8281 98.2832 19.0234C98.3848 19.2188 98.5332 19.3555 98.7285 19.4336C98.9238 19.5039 99.1699 19.5391 99.4668 19.5391C99.6777 19.5391 99.8652 19.5312 100.029 19.5156C100.201 19.4922 100.346 19.4688 100.463 19.4453L100.475 21.9297C100.186 22.0234 99.873 22.0977 99.5371 22.1523C99.2012 22.207 98.8301 22.2344 98.4238 22.2344C97.6816 22.2344 97.0332 22.1133 96.4785 21.8711C95.9316 21.6211 95.5098 21.2227 95.2129 20.6758C94.916 20.1289 94.7676 19.4102 94.7676 18.5195V6.19141Z" fill="white"/>
<g filter="url(#filter0_d_315_7260)">
<path d="M4.1582 21.124C4.1582 20.5032 4.66145 20 5.28224 20H54.522C55.014 20 55.4488 20.3199 55.5952 20.7896L58.7037 30.7637C58.9292 31.4874 58.3885 32.2222 57.6305 32.2222H5.28224C4.66145 32.2222 4.1582 31.719 4.1582 31.0982V21.124Z" fill="#FF4560"/>
</g>
<path d="M17.4082 23.3125V24.3008H14.8926V29H13.623V23.3125H17.4082ZM14.4395 25.3281H15.7129C16.166 25.3281 16.5592 25.4036 16.8926 25.5547C17.2259 25.7057 17.4824 25.918 17.6621 26.1914C17.8418 26.4622 17.9316 26.7799 17.9316 27.1445C17.9316 27.418 17.8796 27.668 17.7754 27.8945C17.6738 28.1211 17.5254 28.3177 17.3301 28.4844C17.1374 28.6484 16.9043 28.776 16.6309 28.8672C16.36 28.9557 16.054 29 15.7129 29H13.627V23.3125H14.9043V28.0156H15.7129C15.9212 28.0156 16.0957 27.9766 16.2363 27.8984C16.377 27.8177 16.4824 27.7109 16.5527 27.5781C16.6257 27.4453 16.6621 27.2982 16.6621 27.1367C16.6621 26.9779 16.6257 26.8372 16.5527 26.7148C16.4824 26.5898 16.377 26.4922 16.2363 26.4219C16.0957 26.349 15.9212 26.3125 15.7129 26.3125H14.4395V25.3281ZM20.8105 27.9922V26.1797C20.8105 26.0521 20.791 25.9427 20.752 25.8516C20.7129 25.7604 20.6517 25.6888 20.5684 25.6367C20.485 25.5846 20.377 25.5586 20.2441 25.5586C20.1322 25.5586 20.0345 25.5781 19.9512 25.6172C19.8704 25.6562 19.8079 25.7122 19.7637 25.7852C19.722 25.8581 19.7012 25.9479 19.7012 26.0547H18.4824C18.4824 25.8646 18.5254 25.6875 18.6113 25.5234C18.6973 25.3594 18.8197 25.2148 18.9785 25.0898C19.14 24.9648 19.3327 24.8685 19.5566 24.8008C19.7806 24.7305 20.0319 24.6953 20.3105 24.6953C20.6413 24.6953 20.9355 24.7513 21.1934 24.8633C21.4538 24.9727 21.6595 25.138 21.8105 25.3594C21.9616 25.5781 22.0371 25.8542 22.0371 26.1875V27.957C22.0371 28.2122 22.0514 28.4128 22.0801 28.5586C22.1113 28.7018 22.1556 28.8268 22.2129 28.9336V29H20.9824C20.9251 28.8776 20.8822 28.7266 20.8535 28.5469C20.8249 28.3646 20.8105 28.1797 20.8105 27.9922ZM20.9629 26.4219L20.9707 27.0938H20.3652C20.2298 27.0938 20.1126 27.1107 20.0137 27.1445C19.9173 27.1784 19.8392 27.2253 19.7793 27.2852C19.7194 27.3424 19.6751 27.4102 19.6465 27.4883C19.6204 27.5638 19.6074 27.6471 19.6074 27.7383C19.6074 27.8242 19.6283 27.9023 19.6699 27.9727C19.7116 28.0404 19.7689 28.0938 19.8418 28.1328C19.9147 28.1719 19.9993 28.1914 20.0957 28.1914C20.2546 28.1914 20.39 28.1602 20.502 28.0977C20.6165 28.0352 20.7051 27.9596 20.7676 27.8711C20.8301 27.7799 20.8613 27.6953 20.8613 27.6172L21.1543 28.125C21.1074 28.2292 21.0501 28.3372 20.9824 28.4492C20.9147 28.5586 20.8288 28.6615 20.7246 28.7578C20.6204 28.8516 20.4941 28.9284 20.3457 28.9883C20.1999 29.0482 20.0241 29.0781 19.8184 29.0781C19.5527 29.0781 19.3118 29.0247 19.0957 28.918C18.8796 28.8086 18.7064 28.6589 18.5762 28.4688C18.4486 28.2786 18.3848 28.0599 18.3848 27.8125C18.3848 27.5911 18.4251 27.3945 18.5059 27.2227C18.5866 27.0508 18.7077 26.9049 18.8691 26.7852C19.0332 26.6654 19.2389 26.5755 19.4863 26.5156C19.7337 26.4531 20.0228 26.4219 20.3535 26.4219H20.9629ZM24.7988 26.9844H23.9473V26.4648H24.5176C24.6452 26.4648 24.7467 26.4466 24.8223 26.4102C24.9004 26.3737 24.9564 26.3229 24.9902 26.2578C25.0267 26.1927 25.0449 26.1172 25.0449 26.0312C25.0449 25.9557 25.0306 25.8841 25.002 25.8164C24.9759 25.7487 24.9264 25.6927 24.8535 25.6484C24.7806 25.6016 24.6764 25.5781 24.541 25.5781C24.429 25.5781 24.3301 25.5951 24.2441 25.6289C24.1608 25.6602 24.0944 25.7057 24.0449 25.7656C23.998 25.8255 23.9746 25.901 23.9746 25.9922H22.752C22.752 25.7214 22.8288 25.4896 22.9824 25.2969C23.1361 25.1042 23.3431 24.957 23.6035 24.8555C23.8639 24.7513 24.1517 24.6992 24.4668 24.6992C24.7402 24.6992 24.9876 24.7266 25.209 24.7812C25.4303 24.8333 25.6191 24.9115 25.7754 25.0156C25.9316 25.1198 26.0514 25.2487 26.1348 25.4023C26.2207 25.5534 26.2637 25.7292 26.2637 25.9297C26.2637 26.0729 26.2298 26.2083 26.1621 26.3359C26.0944 26.4635 25.9967 26.5768 25.8691 26.6758C25.7415 26.7721 25.5866 26.8477 25.4043 26.9023C25.2246 26.957 25.0228 26.9844 24.7988 26.9844ZM23.9473 26.7031H24.7988C25.0488 26.7031 25.2702 26.7279 25.4629 26.7773C25.6556 26.8242 25.8171 26.8945 25.9473 26.9883C26.0775 27.082 26.1751 27.1979 26.2402 27.3359C26.3079 27.4714 26.3418 27.6276 26.3418 27.8047C26.3418 28.0052 26.2949 28.1849 26.2012 28.3438C26.11 28.5 25.9811 28.6328 25.8145 28.7422C25.6478 28.8516 25.4499 28.9349 25.2207 28.9922C24.9915 29.0495 24.7402 29.0781 24.4668 29.0781C24.1751 29.0781 23.8926 29.0312 23.6191 28.9375C23.3457 28.8438 23.1217 28.6992 22.9473 28.5039C22.7728 28.3086 22.6855 28.0573 22.6855 27.75H23.9082C23.9082 27.8307 23.9303 27.9049 23.9746 27.9727C24.0215 28.0404 24.0918 28.0951 24.1855 28.1367C24.2793 28.1784 24.3991 28.1992 24.5449 28.1992C24.6882 28.1992 24.8014 28.1758 24.8848 28.1289C24.9707 28.0794 25.0319 28.0169 25.0684 27.9414C25.1048 27.8659 25.123 27.7878 25.123 27.707C25.123 27.5872 25.0996 27.4922 25.0527 27.4219C25.0085 27.349 24.9408 27.2956 24.8496 27.2617C24.7611 27.2253 24.6504 27.207 24.5176 27.207H23.9473V26.7031ZM26.7871 26.9297V26.8477C26.7871 26.5378 26.8314 26.2526 26.9199 25.9922C27.0085 25.7292 27.1387 25.5013 27.3105 25.3086C27.4824 25.1159 27.6934 24.9661 27.9434 24.8594C28.1934 24.75 28.4798 24.6953 28.8027 24.6953C29.1309 24.6953 29.4199 24.75 29.6699 24.8594C29.9225 24.9661 30.1348 25.1159 30.3066 25.3086C30.4785 25.5013 30.6087 25.7292 30.6973 25.9922C30.7858 26.2526 30.8301 26.5378 30.8301 26.8477V26.9297C30.8301 27.237 30.7858 27.5221 30.6973 27.7852C30.6087 28.0456 30.4785 28.2734 30.3066 28.4688C30.1348 28.6615 29.9238 28.8112 29.6738 28.918C29.4238 29.0247 29.1361 29.0781 28.8105 29.0781C28.4876 29.0781 28.1999 29.0247 27.9473 28.918C27.6947 28.8112 27.4824 28.6615 27.3105 28.4688C27.1387 28.2734 27.0085 28.0456 26.9199 27.7852C26.8314 27.5221 26.7871 27.237 26.7871 26.9297ZM28.0098 26.8477V26.9297C28.0098 27.0964 28.0228 27.2526 28.0488 27.3984C28.0775 27.5443 28.123 27.6719 28.1855 27.7812C28.248 27.8906 28.3301 27.9766 28.4316 28.0391C28.5358 28.099 28.6621 28.1289 28.8105 28.1289C28.959 28.1289 29.084 28.099 29.1855 28.0391C29.2871 27.9766 29.3691 27.8906 29.4316 27.7812C29.4941 27.6719 29.5384 27.5443 29.5645 27.3984C29.5931 27.2526 29.6074 27.0964 29.6074 26.9297V26.8477C29.6074 26.6836 29.5931 26.5299 29.5645 26.3867C29.5384 26.2409 29.4941 26.112 29.4316 26C29.3691 25.888 29.2858 25.8008 29.1816 25.7383C29.0801 25.6758 28.9538 25.6445 28.8027 25.6445C28.6569 25.6445 28.5332 25.6758 28.4316 25.7383C28.3301 25.8008 28.248 25.888 28.1855 26C28.123 26.112 28.0775 26.2409 28.0488 26.3867C28.0228 26.5299 28.0098 26.6836 28.0098 26.8477ZM33.6113 27.2539H32.2988L32.291 26.4805H33.377C33.502 26.4805 33.6035 26.4674 33.6816 26.4414C33.7598 26.4128 33.8158 26.3711 33.8496 26.3164C33.8861 26.2617 33.9043 26.1966 33.9043 26.1211C33.9043 26.0456 33.8926 25.9831 33.8691 25.9336C33.8457 25.8815 33.8092 25.8398 33.7598 25.8086C33.7129 25.7747 33.6543 25.7513 33.584 25.7383C33.5137 25.7227 33.4316 25.7148 33.3379 25.7148H32.7715V29H31.5488V24.7734H33.3379C33.6139 24.7734 33.8613 24.7982 34.0801 24.8477C34.3014 24.8945 34.4889 24.9674 34.6426 25.0664C34.7988 25.1628 34.9186 25.2852 35.002 25.4336C35.0853 25.5794 35.127 25.7526 35.127 25.9531C35.127 26.0833 35.0957 26.2057 35.0332 26.3203C34.9733 26.4349 34.8835 26.5365 34.7637 26.625C34.6465 26.7135 34.502 26.7865 34.3301 26.8438C34.1582 26.8984 33.9603 26.9323 33.7363 26.9453L33.6113 27.2539ZM33.6113 29H32.0176L32.4121 28.0586H33.6113C33.7337 28.0586 33.834 28.0443 33.9121 28.0156C33.9902 27.9844 34.0475 27.9401 34.084 27.8828C34.123 27.8229 34.1426 27.75 34.1426 27.6641C34.1426 27.5833 34.1257 27.513 34.0918 27.4531C34.0605 27.3906 34.0059 27.3424 33.9277 27.3086C33.8496 27.2721 33.7441 27.2539 33.6113 27.2539H32.5684L32.5762 26.4805H33.7285L34.0098 26.793C34.3223 26.8112 34.5775 26.8685 34.7754 26.9648C34.9759 27.0586 35.123 27.1771 35.2168 27.3203C35.3132 27.4635 35.3613 27.6211 35.3613 27.793C35.3613 27.9935 35.3236 28.1693 35.248 28.3203C35.1725 28.4714 35.0592 28.5977 34.9082 28.6992C34.7598 28.7982 34.5762 28.8737 34.3574 28.9258C34.1413 28.9753 33.8926 29 33.6113 29ZM36.8066 25.9805H38.0176C38.4134 25.9805 38.752 26.0443 39.0332 26.1719C39.3145 26.2995 39.5306 26.4779 39.6816 26.707C39.8327 26.9362 39.9082 27.2018 39.9082 27.5039C39.9082 27.7201 39.8652 27.9206 39.7793 28.1055C39.696 28.2878 39.5723 28.4453 39.4082 28.5781C39.2467 28.7109 39.0488 28.8151 38.8145 28.8906C38.5801 28.9635 38.3145 29 38.0176 29H36.0566V24.7734H37.2832V28.0586H38.0176C38.179 28.0586 38.3079 28.0339 38.4043 27.9844C38.5033 27.9323 38.5749 27.8633 38.6191 27.7773C38.666 27.6914 38.6895 27.599 38.6895 27.5C38.6895 27.3932 38.666 27.2969 38.6191 27.2109C38.5749 27.1224 38.5033 27.0534 38.4043 27.0039C38.3079 26.9518 38.179 26.9258 38.0176 26.9258H36.8066V25.9805ZM41.7871 24.7734V29H40.5605V24.7734H41.7871ZM43.9121 27.3281L45.2051 24.7734H46.4238V29H45.2051V26.4375L43.9121 29H42.6895V24.7734H43.9121V27.3281ZM45.1348 23.0312H45.9863C45.9863 23.2604 45.929 23.4635 45.8145 23.6406C45.6999 23.8177 45.5371 23.9557 45.3262 24.0547C45.1178 24.1536 44.8704 24.2031 44.584 24.2031C44.1543 24.2031 43.8132 24.0951 43.5605 23.8789C43.3079 23.6602 43.1816 23.3776 43.1816 23.0312H44.0293C44.0293 23.1641 44.071 23.2826 44.1543 23.3867C44.2402 23.4883 44.3835 23.5391 44.584 23.5391C44.7871 23.5391 44.929 23.4883 45.0098 23.3867C45.0931 23.2826 45.1348 23.1641 45.1348 23.0312Z" fill="white"/>
<defs>
<filter id="filter0_d_315_7260" x="0.158203" y="15" width="62.5977" height="20.2222" filterUnits="userSpaceOnUse" color-interpolation-filters="sRGB">
<feFlood flood-opacity="0" result="BackgroundImageFix"/>
<feColorMatrix in="SourceAlpha" type="matrix" values="0 0 0 0 0 0 0 0 0 0 0 0 0 0 0 0 0 0 127 0" result="hardAlpha"/>
<feOffset dy="-1"/>
<feGaussianBlur stdDeviation="2"/>
<feComposite in2="hardAlpha" operator="out"/>
<feColorMatrix type="matrix" values="0 0 0 0 0 0 0 0 0 0 0 0 0 0 0 0 0 0 0.25 0"/>
<feBlend mode="normal" in2="BackgroundImageFix" result="effect1_dropShadow_315_7260"/>
<feBlend mode="normal" in="SourceGraphic" in2="effect1_dropShadow_315_7260" result="shape"/>
</filter>
</defs>
</svg>
