<svg width="102" height="35" viewBox="0 0 102 35" fill="none" xmlns="http://www.w3.org/2000/svg">
<path d="M8.6582 20L8.53431 21.0029L4.17614 20.673L8.6582 15.5L9.1582 17L8.6582 20Z" fill="#00BE59"/>
<path d="M20.0605 11.8867V14.6289H11.1543V11.8867H20.0605ZM12.1973 4.9375V22H8.68164V4.9375H12.1973ZM22.5684 4.9375V22H19.0645V4.9375H22.5684ZM25.627 4.9375H31.9902C33.2949 4.9375 34.416 5.13281 35.3535 5.52344C36.2988 5.91406 37.0254 6.49219 37.5332 7.25781C38.041 8.02344 38.2949 8.96484 38.2949 10.082C38.2949 10.9961 38.1387 11.7812 37.8262 12.4375C37.5215 13.0859 37.0879 13.6289 36.5254 14.0664C35.9707 14.4961 35.3184 14.8398 34.5684 15.0977L33.4551 15.6836H27.9238L27.9004 12.9414H32.0137C32.6309 12.9414 33.1426 12.832 33.5488 12.6133C33.9551 12.3945 34.2598 12.0898 34.4629 11.6992C34.6738 11.3086 34.7793 10.8555 34.7793 10.3398C34.7793 9.79297 34.6777 9.32031 34.4746 8.92188C34.2715 8.52344 33.9629 8.21875 33.5488 8.00781C33.1348 7.79688 32.6152 7.69141 31.9902 7.69141H29.1426V22H25.627V4.9375ZM35.166 22L31.2754 14.3945L34.9902 14.3711L38.9277 21.8359V22H35.166ZM47.4473 13.3516V16H40.8262V13.3516H47.4473ZM61.8496 11.8867V14.6289H52.9434V11.8867H61.8496ZM53.9863 4.9375V22H50.4707V4.9375H53.9863ZM64.3574 4.9375V22H60.8535V4.9375H64.3574ZM74.7051 18.9648V9.32031H78.0801V22H74.9043L74.7051 18.9648ZM75.0801 16.3633L76.0762 16.3398C76.0762 17.1836 75.9785 17.9688 75.7832 18.6953C75.5879 19.4141 75.2949 20.0391 74.9043 20.5703C74.5137 21.0938 74.0215 21.5039 73.4277 21.8008C72.834 22.0898 72.1348 22.2344 71.3301 22.2344C70.7129 22.2344 70.1426 22.1484 69.6191 21.9766C69.1035 21.7969 68.6582 21.5195 68.2832 21.1445C67.916 20.7617 67.627 20.2734 67.416 19.6797C67.2129 19.0781 67.1113 18.3555 67.1113 17.5117V9.32031H70.4863V17.5352C70.4863 17.9102 70.5293 18.2266 70.6152 18.4844C70.709 18.7422 70.8379 18.9531 71.002 19.1172C71.166 19.2812 71.3574 19.3984 71.5762 19.4688C71.8027 19.5391 72.0527 19.5742 72.3262 19.5742C73.0215 19.5742 73.5684 19.4336 73.9668 19.1523C74.373 18.8711 74.6582 18.4883 74.8223 18.0039C74.9941 17.5117 75.0801 16.9648 75.0801 16.3633ZM83.9629 12.0273V22H80.5879V9.32031H83.752L83.9629 12.0273ZM83.4707 15.2148H82.5566C82.5566 14.2773 82.6777 13.4336 82.9199 12.6836C83.1621 11.9258 83.502 11.2812 83.9395 10.75C84.377 10.2109 84.8965 9.80078 85.498 9.51953C86.1074 9.23047 86.7871 9.08594 87.5371 9.08594C88.1309 9.08594 88.6738 9.17188 89.166 9.34375C89.6582 9.51562 90.0801 9.78906 90.4316 10.1641C90.791 10.5391 91.0645 11.0352 91.252 11.6523C91.4473 12.2695 91.5449 13.0234 91.5449 13.9141V22H88.1465V13.9023C88.1465 13.3398 88.0684 12.9023 87.9121 12.5898C87.7559 12.2773 87.5254 12.0586 87.2207 11.9336C86.9238 11.8008 86.5566 11.7344 86.1191 11.7344C85.666 11.7344 85.2715 11.8242 84.9355 12.0039C84.6074 12.1836 84.334 12.4336 84.1152 12.7539C83.9043 13.0664 83.7441 13.4336 83.6348 13.8555C83.5254 14.2773 83.4707 14.7305 83.4707 15.2148ZM100.322 9.32031V11.7109H92.9395V9.32031H100.322ZM94.7676 6.19141H98.1426V18.1797C98.1426 18.5469 98.1895 18.8281 98.2832 19.0234C98.3848 19.2188 98.5332 19.3555 98.7285 19.4336C98.9238 19.5039 99.1699 19.5391 99.4668 19.5391C99.6777 19.5391 99.8652 19.5312 100.029 19.5156C100.201 19.4922 100.346 19.4688 100.463 19.4453L100.475 21.9297C100.186 22.0234 99.873 22.0977 99.5371 22.1523C99.2012 22.207 98.8301 22.2344 98.4238 22.2344C97.6816 22.2344 97.0332 22.1133 96.4785 21.8711C95.9316 21.6211 95.5098 21.2227 95.2129 20.6758C94.916 20.1289 94.7676 19.4102 94.7676 18.5195V6.19141Z" fill="white"/>
<g filter="url(#filter0_d_315_7278)">
<path d="M4 21.124C4 20.5032 4.50325 20 5.12404 20H72.1328C72.583 20 72.9897 20.2686 73.1665 20.6826L77.3314 30.4345C77.6481 31.176 77.104 32 76.2977 32H5.12404C4.50325 32 4 31.4968 4 30.876V21.124Z" fill="#00D664"/>
</g>
<path d="M14.8965 23.3125V29H13.627V23.3125H14.8965ZM18.2129 23.3125L16.0996 26.6992H14.6465L14.4902 25.5625H15.4355L16.6738 23.3125H18.2129ZM16.8965 29L15.4355 26.4844L16.3379 25.6094L18.4043 29H16.8965ZM21.5918 24.7734V25.7227H19.5059V24.7734H21.5918ZM22.4551 24.7734V29H21.2363V24.7734H22.4551ZM19.1973 24.7734H20.3926L20.2754 26.9258C20.2598 27.2305 20.2259 27.4974 20.1738 27.7266C20.1243 27.9557 20.0566 28.151 19.9707 28.3125C19.8874 28.474 19.7871 28.6055 19.6699 28.707C19.5527 28.8086 19.4186 28.8828 19.2676 28.9297C19.1191 28.9766 18.9564 29 18.7793 29H18.4082L18.3887 28.0508L18.5332 28.0352C18.6113 28.0273 18.679 28.0039 18.7363 27.9648C18.7962 27.9258 18.847 27.8698 18.8887 27.7969C18.9329 27.724 18.9707 27.6302 19.002 27.5156C19.0332 27.401 19.0579 27.2669 19.0762 27.1133C19.097 26.957 19.1113 26.7773 19.1191 26.5742L19.1973 24.7734ZM25.4902 27.9922V26.1797C25.4902 26.0521 25.4707 25.9427 25.4316 25.8516C25.3926 25.7604 25.3314 25.6888 25.248 25.6367C25.1647 25.5846 25.0566 25.5586 24.9238 25.5586C24.8118 25.5586 24.7142 25.5781 24.6309 25.6172C24.5501 25.6562 24.4876 25.7122 24.4434 25.7852C24.4017 25.8581 24.3809 25.9479 24.3809 26.0547H23.1621C23.1621 25.8646 23.2051 25.6875 23.291 25.5234C23.377 25.3594 23.4993 25.2148 23.6582 25.0898C23.8197 24.9648 24.0124 24.8685 24.2363 24.8008C24.4603 24.7305 24.7116 24.6953 24.9902 24.6953C25.321 24.6953 25.6152 24.7513 25.873 24.8633C26.1335 24.9727 26.3392 25.138 26.4902 25.3594C26.6413 25.5781 26.7168 25.8542 26.7168 26.1875V27.957C26.7168 28.2122 26.7311 28.4128 26.7598 28.5586C26.791 28.7018 26.8353 28.8268 26.8926 28.9336V29H25.6621C25.6048 28.8776 25.5618 28.7266 25.5332 28.5469C25.5046 28.3646 25.4902 28.1797 25.4902 27.9922ZM25.6426 26.4219L25.6504 27.0938H25.0449C24.9095 27.0938 24.7923 27.1107 24.6934 27.1445C24.597 27.1784 24.5189 27.2253 24.459 27.2852C24.3991 27.3424 24.3548 27.4102 24.3262 27.4883C24.3001 27.5638 24.2871 27.6471 24.2871 27.7383C24.2871 27.8242 24.3079 27.9023 24.3496 27.9727C24.3913 28.0404 24.4486 28.0938 24.5215 28.1328C24.5944 28.1719 24.679 28.1914 24.7754 28.1914C24.9342 28.1914 25.0697 28.1602 25.1816 28.0977C25.2962 28.0352 25.3848 27.9596 25.4473 27.8711C25.5098 27.7799 25.541 27.6953 25.541 27.6172L25.834 28.125C25.7871 28.2292 25.7298 28.3372 25.6621 28.4492C25.5944 28.5586 25.5085 28.6615 25.4043 28.7578C25.3001 28.8516 25.1738 28.9284 25.0254 28.9883C24.8796 29.0482 24.7038 29.0781 24.498 29.0781C24.2324 29.0781 23.9915 29.0247 23.7754 28.918C23.5592 28.8086 23.3861 28.6589 23.2559 28.4688C23.1283 28.2786 23.0645 28.0599 23.0645 27.8125C23.0645 27.5911 23.1048 27.3945 23.1855 27.2227C23.2663 27.0508 23.3874 26.9049 23.5488 26.7852C23.7129 26.6654 23.9186 26.5755 24.166 26.5156C24.4134 26.4531 24.7025 26.4219 25.0332 26.4219H25.6426ZM29.2832 28.1289C29.4134 28.1289 29.5267 28.1042 29.623 28.0547C29.7194 28.0052 29.7936 27.9362 29.8457 27.8477C29.9004 27.7565 29.9277 27.6471 29.9277 27.5195H31.0762C31.0762 27.8268 30.9967 28.0977 30.8379 28.332C30.6816 28.5664 30.4707 28.75 30.2051 28.8828C29.9395 29.013 29.64 29.0781 29.3066 29.0781C28.9785 29.0781 28.6921 29.0247 28.4473 28.918C28.2025 28.8086 27.998 28.6562 27.834 28.4609C27.6699 28.2656 27.5462 28.0391 27.4629 27.7812C27.3822 27.5208 27.3418 27.2396 27.3418 26.9375V26.8359C27.3418 26.5365 27.3822 26.2565 27.4629 25.9961C27.5462 25.7357 27.6699 25.5078 27.834 25.3125C27.998 25.1172 28.2012 24.9661 28.4434 24.8594C28.6882 24.75 28.9746 24.6953 29.3027 24.6953C29.6491 24.6953 29.9551 24.7617 30.2207 24.8945C30.4889 25.0273 30.6986 25.2188 30.8496 25.4688C31.0007 25.7161 31.0762 26.0143 31.0762 26.3633H29.9277C29.9277 26.2279 29.903 26.1068 29.8535 26C29.8066 25.8906 29.7337 25.8047 29.6348 25.7422C29.5384 25.6771 29.4186 25.6445 29.2754 25.6445C29.127 25.6445 29.0046 25.6771 28.9082 25.7422C28.8145 25.8047 28.7428 25.8919 28.6934 26.0039C28.6439 26.1159 28.61 26.2435 28.5918 26.3867C28.5736 26.5273 28.5645 26.6771 28.5645 26.8359V26.9375C28.5645 27.099 28.5736 27.2526 28.5918 27.3984C28.61 27.5417 28.6439 27.668 28.6934 27.7773C28.7454 27.8867 28.8184 27.9727 28.9121 28.0352C29.0059 28.0977 29.1296 28.1289 29.2832 28.1289ZM33.4473 28.1289C33.5775 28.1289 33.6908 28.1042 33.7871 28.0547C33.8835 28.0052 33.9577 27.9362 34.0098 27.8477C34.0645 27.7565 34.0918 27.6471 34.0918 27.5195H35.2402C35.2402 27.8268 35.1608 28.0977 35.002 28.332C34.8457 28.5664 34.6348 28.75 34.3691 28.8828C34.1035 29.013 33.804 29.0781 33.4707 29.0781C33.1426 29.0781 32.8561 29.0247 32.6113 28.918C32.3665 28.8086 32.1621 28.6562 31.998 28.4609C31.834 28.2656 31.7103 28.0391 31.627 27.7812C31.5462 27.5208 31.5059 27.2396 31.5059 26.9375V26.8359C31.5059 26.5365 31.5462 26.2565 31.627 25.9961C31.7103 25.7357 31.834 25.5078 31.998 25.3125C32.1621 25.1172 32.3652 24.9661 32.6074 24.8594C32.8522 24.75 33.1387 24.6953 33.4668 24.6953C33.8132 24.6953 34.1191 24.7617 34.3848 24.8945C34.653 25.0273 34.8626 25.2188 35.0137 25.4688C35.1647 25.7161 35.2402 26.0143 35.2402 26.3633H34.0918C34.0918 26.2279 34.0671 26.1068 34.0176 26C33.9707 25.8906 33.8978 25.8047 33.7988 25.7422C33.7025 25.6771 33.5827 25.6445 33.4395 25.6445C33.291 25.6445 33.1686 25.6771 33.0723 25.7422C32.9785 25.8047 32.9069 25.8919 32.8574 26.0039C32.8079 26.1159 32.7741 26.2435 32.7559 26.3867C32.7376 26.5273 32.7285 26.6771 32.7285 26.8359V26.9375C32.7285 27.099 32.7376 27.2526 32.7559 27.3984C32.7741 27.5417 32.8079 27.668 32.8574 27.7773C32.9095 27.8867 32.9824 27.9727 33.0762 28.0352C33.1699 28.0977 33.2936 28.1289 33.4473 28.1289ZM37.0527 27.3281L38.3457 24.7734H39.5645V29H38.3457V26.4375L37.0527 29H35.8301V24.7734H37.0527V27.3281ZM44.0098 24.7734V29H42.7871V24.7734H44.0098ZM43.4082 26.5508V27.5C43.3379 27.5417 43.2363 27.5807 43.1035 27.6172C42.9707 27.6536 42.8314 27.6836 42.6855 27.707C42.5397 27.7305 42.4121 27.7422 42.3027 27.7422C41.8783 27.7422 41.515 27.6862 41.2129 27.5742C40.9134 27.4596 40.6829 27.2826 40.5215 27.043C40.36 26.8034 40.2793 26.4935 40.2793 26.1133V24.7734H41.498V26.1133C41.498 26.293 41.5241 26.4323 41.5762 26.5312C41.6309 26.6302 41.7168 26.6992 41.834 26.7383C41.9512 26.7747 42.1074 26.793 42.3027 26.793C42.4251 26.793 42.5449 26.7839 42.6621 26.7656C42.7793 26.7448 42.8991 26.7161 43.0215 26.6797C43.1465 26.6432 43.2754 26.6003 43.4082 26.5508ZM46.791 29.0781C46.4551 29.0781 46.1543 29.0247 45.8887 28.918C45.623 28.8112 45.3978 28.6641 45.2129 28.4766C45.0306 28.2865 44.8913 28.0677 44.7949 27.8203C44.6986 27.5729 44.6504 27.3086 44.6504 27.0273V26.8789C44.6504 26.5638 44.6947 26.2734 44.7832 26.0078C44.8717 25.7422 45.0007 25.5117 45.1699 25.3164C45.3418 25.1185 45.5527 24.9661 45.8027 24.8594C46.0527 24.75 46.3379 24.6953 46.6582 24.6953C46.9577 24.6953 47.2246 24.7448 47.459 24.8438C47.6934 24.9401 47.8913 25.0794 48.0527 25.2617C48.2142 25.4414 48.3366 25.6589 48.4199 25.9141C48.5059 26.1667 48.5488 26.4505 48.5488 26.7656V27.2656H45.1426V26.4805H47.3535V26.3867C47.3535 26.2383 47.3262 26.1081 47.2715 25.9961C47.2194 25.8841 47.1413 25.7982 47.0371 25.7383C46.9355 25.6758 46.8066 25.6445 46.6504 25.6445C46.502 25.6445 46.3783 25.6758 46.2793 25.7383C46.1803 25.8008 46.1009 25.8893 46.041 26.0039C45.9837 26.1159 45.9421 26.2474 45.916 26.3984C45.89 26.5469 45.877 26.707 45.877 26.8789V27.0273C45.877 27.1914 45.8991 27.3411 45.9434 27.4766C45.9876 27.612 46.0527 27.7279 46.1387 27.8242C46.2246 27.9206 46.3288 27.9961 46.4512 28.0508C46.5736 28.1055 46.7129 28.1328 46.8691 28.1328C47.0618 28.1328 47.2454 28.0964 47.4199 28.0234C47.5944 27.9479 47.7454 27.8307 47.873 27.6719L48.4434 28.3242C48.3574 28.4492 48.2363 28.5703 48.0801 28.6875C47.9264 28.8021 47.7415 28.8958 47.5254 28.9688C47.3092 29.0417 47.0645 29.0781 46.791 29.0781ZM50.9082 28.1289C51.0384 28.1289 51.1517 28.1042 51.248 28.0547C51.3444 28.0052 51.4186 27.9362 51.4707 27.8477C51.5254 27.7565 51.5527 27.6471 51.5527 27.5195H52.7012C52.7012 27.8268 52.6217 28.0977 52.4629 28.332C52.3066 28.5664 52.0957 28.75 51.8301 28.8828C51.5645 29.013 51.265 29.0781 50.9316 29.0781C50.6035 29.0781 50.3171 29.0247 50.0723 28.918C49.8275 28.8086 49.623 28.6562 49.459 28.4609C49.2949 28.2656 49.1712 28.0391 49.0879 27.7812C49.0072 27.5208 48.9668 27.2396 48.9668 26.9375V26.8359C48.9668 26.5365 49.0072 26.2565 49.0879 25.9961C49.1712 25.7357 49.2949 25.5078 49.459 25.3125C49.623 25.1172 49.8262 24.9661 50.0684 24.8594C50.3132 24.75 50.5996 24.6953 50.9277 24.6953C51.2741 24.6953 51.5801 24.7617 51.8457 24.8945C52.1139 25.0273 52.3236 25.2188 52.4746 25.4688C52.6257 25.7161 52.7012 26.0143 52.7012 26.3633H51.5527C51.5527 26.2279 51.528 26.1068 51.4785 26C51.4316 25.8906 51.3587 25.8047 51.2598 25.7422C51.1634 25.6771 51.0436 25.6445 50.9004 25.6445C50.752 25.6445 50.6296 25.6771 50.5332 25.7422C50.4395 25.8047 50.3678 25.8919 50.3184 26.0039C50.2689 26.1159 50.235 26.2435 50.2168 26.3867C50.1986 26.5273 50.1895 26.6771 50.1895 26.8359V26.9375C50.1895 27.099 50.1986 27.2526 50.2168 27.3984C50.235 27.5417 50.2689 27.668 50.3184 27.7773C50.3704 27.8867 50.4434 27.9727 50.5371 28.0352C50.6309 28.0977 50.7546 28.1289 50.9082 28.1289ZM54.6074 24.7734V29H53.3848V24.7734H54.6074ZM57.3496 24.7734L55.5723 27.4688H54.4199L54.2793 26.3359H55.0059L55.7949 24.7734H57.3496ZM55.834 29L54.916 27.2461L56.0176 26.6992L57.4785 29H55.834ZM59.0605 27.3281L60.3535 24.7734H61.5723V29H60.3535V26.4375L59.0605 29H57.8379V24.7734H59.0605V27.3281ZM63.5684 27.3281L64.8613 24.7734H66.0801V29H64.8613V26.4375L63.5684 29H62.3457V24.7734H63.5684V27.3281ZM64.791 23.0312H65.6426C65.6426 23.2604 65.5853 23.4635 65.4707 23.6406C65.3561 23.8177 65.1934 23.9557 64.9824 24.0547C64.7741 24.1536 64.5267 24.2031 64.2402 24.2031C63.8105 24.2031 63.4694 24.0951 63.2168 23.8789C62.9642 23.6602 62.8379 23.3776 62.8379 23.0312H63.6855C63.6855 23.1641 63.7272 23.2826 63.8105 23.3867C63.8965 23.4883 64.0397 23.5391 64.2402 23.5391C64.4434 23.5391 64.5853 23.4883 64.666 23.3867C64.7493 23.2826 64.791 23.1641 64.791 23.0312Z" fill="white"/>
<defs>
<filter id="filter0_d_315_7278" x="0" y="15" width="81.4238" height="20" filterUnits="userSpaceOnUse" color-interpolation-filters="sRGB">
<feFlood flood-opacity="0" result="BackgroundImageFix"/>
<feColorMatrix in="SourceAlpha" type="matrix" values="0 0 0 0 0 0 0 0 0 0 0 0 0 0 0 0 0 0 127 0" result="hardAlpha"/>
<feOffset dy="-1"/>
<feGaussianBlur stdDeviation="2"/>
<feComposite in2="hardAlpha" operator="out"/>
<feColorMatrix type="matrix" values="0 0 0 0 0 0 0 0 0 0 0 0 0 0 0 0 0 0 0.25 0"/>
<feBlend mode="normal" in2="BackgroundImageFix" result="effect1_dropShadow_315_7278"/>
<feBlend mode="normal" in="SourceGraphic" in2="effect1_dropShadow_315_7278" result="shape"/>
</filter>
</defs>
</svg>
