<svg width="26" height="26" viewBox="0 0 26 26" fill="none" xmlns="http://www.w3.org/2000/svg">
<path d="M25.2149 24.4184H23.2091V6.36608C23.219 6.21983 23.1796 6.07449 23.0972 5.95328C23.0148 5.83208 22.8941 5.742 22.7545 5.69747L17.8603 3.65154V24.4184H16.5231V1.01724C16.5231 0.839913 16.4526 0.66985 16.3272 0.544463C16.2019 0.419075 16.0318 0.348633 15.8545 0.348633H3.81959C3.64226 0.348633 3.4722 0.419075 3.34681 0.544463C3.22142 0.66985 3.15098 0.839913 3.15098 1.01724V24.4184H1.14517C0.967842 24.4184 0.79778 24.4888 0.672392 24.6142C0.547005 24.7396 0.476562 24.9097 0.476562 25.087C0.476562 25.2643 0.547005 25.4344 0.672392 25.5598C0.79778 25.6852 0.967842 25.7556 1.14517 25.7556H25.2149C25.3923 25.7556 25.5623 25.6852 25.6877 25.5598C25.8131 25.4344 25.8835 25.2643 25.8835 25.087C25.8835 24.9097 25.8131 24.7396 25.6877 24.6142C25.5623 24.4888 25.3923 24.4184 25.2149 24.4184ZM19.8661 8.37189H21.2033C21.3806 8.37189 21.5507 8.44233 21.6761 8.56772C21.8015 8.69311 21.8719 8.86317 21.8719 9.04049C21.8685 9.21675 21.7969 9.38483 21.6723 9.50948C21.5476 9.63413 21.3796 9.70568 21.2033 9.7091H19.8661C19.6898 9.70568 19.5218 9.63413 19.3971 9.50948C19.2725 9.38483 19.2009 9.21675 19.1975 9.04049C19.1975 8.86317 19.2679 8.69311 19.3933 8.56772C19.5187 8.44233 19.6888 8.37189 19.8661 8.37189ZM19.8661 12.3835H21.2033C21.3806 12.3835 21.5507 12.454 21.6761 12.5793C21.8015 12.7047 21.8719 12.8748 21.8719 13.0521C21.8719 13.2294 21.8015 13.3995 21.6761 13.5249C21.5507 13.6503 21.3806 13.7207 21.2033 13.7207H19.8661C19.6888 13.7207 19.5187 13.6503 19.3933 13.5249C19.2679 13.3995 19.1975 13.2294 19.1975 13.0521C19.1975 12.8748 19.2679 12.7047 19.3933 12.5793C19.5187 12.454 19.6888 12.3835 19.8661 12.3835ZM19.8661 16.3951H21.2033C21.3796 16.3986 21.5476 16.4701 21.6723 16.5948C21.7969 16.7194 21.8685 16.8875 21.8719 17.0637C21.8719 17.2411 21.8015 17.4111 21.6761 17.5365C21.5507 17.6619 21.3806 17.7324 21.2033 17.7324H19.8661C19.6888 17.7324 19.5187 17.6619 19.3933 17.5365C19.2679 17.4111 19.1975 17.2411 19.1975 17.0637C19.2009 16.8875 19.2725 16.7194 19.3971 16.5948C19.5218 16.4701 19.6898 16.3986 19.8661 16.3951ZM19.8661 20.4068H21.2033C21.3806 20.4068 21.5507 20.4772 21.6761 20.6026C21.8015 20.728 21.8719 20.8981 21.8719 21.0754C21.8719 21.2527 21.8015 21.4228 21.6761 21.5482C21.5507 21.6735 21.3806 21.744 21.2033 21.744H19.8661C19.6888 21.744 19.5187 21.6735 19.3933 21.5482C19.2679 21.4228 19.1975 21.2527 19.1975 21.0754C19.1975 20.8981 19.2679 20.728 19.3933 20.6026C19.5187 20.4772 19.6888 20.4068 19.8661 20.4068ZM11.1742 4.36026H12.5114C12.6888 4.36026 12.8588 4.4307 12.9842 4.55609C13.1096 4.68148 13.1801 4.85154 13.1801 5.02887C13.1801 5.20619 13.1096 5.37625 12.9842 5.50164C12.8588 5.62703 12.6888 5.69747 12.5114 5.69747H11.1742C10.9969 5.69747 10.8268 5.62703 10.7015 5.50164C10.5761 5.37625 10.5056 5.20619 10.5056 5.02887C10.5056 4.85154 10.5761 4.68148 10.7015 4.55609C10.8268 4.4307 10.9969 4.36026 11.1742 4.36026ZM11.1742 8.37189H12.5114C12.6888 8.37189 12.8588 8.44233 12.9842 8.56772C13.1096 8.69311 13.1801 8.86317 13.1801 9.04049C13.1801 9.21782 13.1096 9.38788 12.9842 9.51327C12.8588 9.63866 12.6888 9.7091 12.5114 9.7091H11.1742C10.9969 9.7091 10.8268 9.63866 10.7015 9.51327C10.5761 9.38788 10.5056 9.21782 10.5056 9.04049C10.5056 8.86317 10.5761 8.69311 10.7015 8.56772C10.8268 8.44233 10.9969 8.37189 11.1742 8.37189ZM11.1742 12.3835H12.5114C12.6888 12.3835 12.8588 12.454 12.9842 12.5793C13.1096 12.7047 13.1801 12.8748 13.1801 13.0521C13.1801 13.2294 13.1096 13.3995 12.9842 13.5249C12.8588 13.6503 12.6888 13.7207 12.5114 13.7207H11.1742C10.9969 13.7207 10.8268 13.6503 10.7015 13.5249C10.5761 13.3995 10.5056 13.2294 10.5056 13.0521C10.5056 12.8748 10.5761 12.7047 10.7015 12.5793C10.8268 12.454 10.9969 12.3835 11.1742 12.3835ZM11.1742 16.3951H12.5114C12.6888 16.3951 12.8588 16.4656 12.9842 16.591C13.1096 16.7164 13.1801 16.8864 13.1801 17.0637C13.1801 17.2411 13.1096 17.4111 12.9842 17.5365C12.8588 17.6619 12.6888 17.7324 12.5114 17.7324H11.1742C10.9969 17.7324 10.8268 17.6619 10.7015 17.5365C10.5761 17.4111 10.5056 17.2411 10.5056 17.0637C10.5056 16.8864 10.5761 16.7164 10.7015 16.591C10.8268 16.4656 10.9969 16.3951 11.1742 16.3951ZM7.08238 4.36026H8.49982C8.67714 4.36026 8.84721 4.4307 8.97259 4.55609C9.09798 4.68148 9.16842 4.85154 9.16842 5.02887C9.16842 5.20619 9.09798 5.37625 8.97259 5.50164C8.84721 5.62703 8.67714 5.69747 8.49982 5.69747H7.16261C6.98528 5.69747 6.81522 5.62703 6.68983 5.50164C6.56445 5.37625 6.494 5.20619 6.494 5.02887C6.494 4.85154 6.56445 4.68148 6.68983 4.55609C6.81522 4.4307 6.98528 4.36026 7.16261 4.36026H7.08238ZM7.08238 8.37189H8.49982C8.67714 8.37189 8.84721 8.44233 8.97259 8.56772C9.09798 8.69311 9.16842 8.86317 9.16842 9.04049C9.16842 9.21782 9.09798 9.38788 8.97259 9.51327C8.84721 9.63866 8.67714 9.7091 8.49982 9.7091H7.16261C6.98528 9.7091 6.81522 9.63866 6.68983 9.51327C6.56445 9.38788 6.494 9.21782 6.494 9.04049C6.494 8.86317 6.56445 8.69311 6.68983 8.56772C6.81522 8.44233 6.98528 8.37189 7.16261 8.37189H7.08238ZM7.08238 12.3835H8.49982C8.67714 12.3835 8.84721 12.454 8.97259 12.5793C9.09798 12.7047 9.16842 12.8748 9.16842 13.0521C9.16842 13.2294 9.09798 13.3995 8.97259 13.5249C8.84721 13.6503 8.67714 13.7207 8.49982 13.7207H7.16261C6.98528 13.7207 6.81522 13.6503 6.68983 13.5249C6.56445 13.3995 6.494 13.2294 6.494 13.0521C6.494 12.8748 6.56445 12.7047 6.68983 12.5793C6.81522 12.454 6.98528 12.3835 7.16261 12.3835H7.08238ZM7.08238 16.3951H8.49982C8.67714 16.3951 8.84721 16.4656 8.97259 16.591C9.09798 16.7164 9.16842 16.8864 9.16842 17.0637C9.16842 17.2411 9.09798 17.4111 8.97259 17.5365C8.84721 17.6619 8.67714 17.7324 8.49982 17.7324H7.16261C6.98528 17.7324 6.81522 17.6619 6.68983 17.5365C6.56445 17.4111 6.494 17.2411 6.494 17.0637C6.494 16.8864 6.56445 16.7164 6.68983 16.591C6.81522 16.4656 6.98528 16.3951 7.16261 16.3951H7.08238ZM10.5056 24.4184V21.744H9.16842V24.4184H7.83121V21.0353C7.84145 20.865 7.91638 20.705 8.04068 20.5882C8.16498 20.4714 8.32923 20.4065 8.49982 20.4068H11.1742C11.3516 20.4068 11.5216 20.4772 11.647 20.6026C11.7724 20.728 11.8428 20.8981 11.8428 21.0754V24.4184H10.5056Z" fill="#08A652"/>
</svg>
