<svg width="24" height="22" viewBox="0 0 24 22" fill="none" xmlns="http://www.w3.org/2000/svg">
<path d="M4.35928 2.82139C4.71393 2.82139 5.05406 2.68051 5.30483 2.42973C5.55561 2.17896 5.69649 1.83883 5.69649 1.48418C5.69649 1.12953 5.55561 0.789408 5.30483 0.538632C5.05406 0.287857 4.71393 0.146973 4.35928 0.146973H1.68487C1.33022 0.146973 0.990091 0.287857 0.739316 0.538632C0.488541 0.789408 0.347656 1.12953 0.347656 1.48418V20.2051C0.347656 20.5598 0.488541 20.8999 0.739316 21.1507C0.990091 21.4014 1.33022 21.5423 1.68487 21.5423H4.35928C4.71393 21.5423 5.05406 21.4014 5.30483 21.1507C5.55561 20.8999 5.69649 20.5598 5.69649 20.2051C5.69649 19.8505 5.55561 19.5103 5.30483 19.2596C5.05406 19.0088 4.71393 18.8679 4.35928 18.8679H3.02207V2.82139H4.35928ZM22.8395 10.0691L19.0686 4.72023C18.8641 4.43194 18.5538 4.23635 18.2055 4.17621C17.8571 4.11607 17.4992 4.19628 17.2099 4.3993C17.0652 4.50064 16.9421 4.62962 16.8476 4.77881C16.7531 4.92799 16.6891 5.09441 16.6593 5.26846C16.6294 5.44252 16.6344 5.62076 16.6738 5.7929C16.7132 5.96504 16.7863 6.12767 16.8889 6.27139L19.1889 9.50744H8.37091C8.01626 9.50744 7.67614 9.64832 7.42536 9.8991C7.17459 10.1499 7.0337 10.49 7.0337 10.8446C7.0337 11.1993 7.17459 11.5394 7.42536 11.7902C7.67614 12.041 8.01626 12.1819 8.37091 12.1819H19.0686L16.6616 15.3912C16.5562 15.5316 16.4796 15.6915 16.436 15.8616C16.3924 16.0317 16.3828 16.2088 16.4076 16.3826C16.4324 16.5564 16.4913 16.7237 16.5807 16.8748C16.6702 17.0259 16.7886 17.1579 16.9291 17.2633C17.1605 17.4369 17.442 17.5307 17.7314 17.5307C17.939 17.5307 18.1437 17.4824 18.3294 17.3895C18.5151 17.2967 18.6766 17.1619 18.8011 16.9958L22.8128 11.647C22.984 11.4208 23.0789 11.146 23.0837 10.8624C23.0885 10.5787 23.003 10.3009 22.8395 10.0691Z" fill="#08A652"/>
</svg>
