<svg width="20" height="25" viewBox="0 0 20 25" fill="none" xmlns="http://www.w3.org/2000/svg">
<path d="M14.1561 1.8966H12.347C12.1213 1.88961 11.9273 1.7344 11.8709 1.51577C11.6995 0.625148 10.9049 -0.00790325 9.99844 0.0241107C9.08656 0.00813412 8.29581 0.651451 8.12596 1.54754C8.06727 1.76016 7.87027 1.90461 7.64988 1.89666H5.9043V5.07042H14.1561V1.8966Z" fill="#08A652"/>
<path d="M19.2323 23.2875V5.10188C19.2343 4.38324 18.6532 3.79909 17.9346 3.79714C17.9017 3.79708 17.8687 3.79824 17.8359 3.80061H15.1064V5.41923C15.1064 5.67315 14.9477 6.02227 14.6938 6.02227H5.33127C5.07735 6.02227 4.95044 5.67315 4.95044 5.41923V3.80067H2.22099C1.50429 3.74806 0.880596 4.28647 0.82805 5.00323C0.82562 5.03609 0.824466 5.06902 0.824587 5.10194V23.2875C0.806849 24.0761 1.43176 24.7297 2.22032 24.7474C2.22057 24.7474 2.22081 24.7474 2.22105 24.7474H17.8359C18.6245 24.7301 19.2497 24.0768 19.2324 23.2882C19.2323 23.288 19.2323 23.2877 19.2323 23.2875ZM7.45768 19.0981L4.98215 21.415C4.903 21.5097 4.788 21.5672 4.66481 21.5737C4.5322 21.5684 4.40687 21.5115 4.31569 21.415L3.01448 20.082C2.84153 19.8883 2.85568 19.5918 3.04619 19.4155C3.23129 19.2341 3.52755 19.2341 3.71265 19.4155L4.66475 20.4311L6.82293 18.3999C7.03931 18.2506 7.33582 18.3049 7.48514 18.5213C7.607 18.6978 7.5957 18.934 7.45768 19.0981ZM7.45768 14.0201L4.98215 16.337C4.903 16.4317 4.788 16.4892 4.66481 16.4957C4.5322 16.4904 4.40687 16.4334 4.31569 16.337L3.01448 15.004C2.84153 14.8103 2.85568 14.5138 3.04619 14.3375C3.23129 14.1561 3.52755 14.1561 3.71265 14.3375L4.66475 15.3531L6.82293 13.3219C7.03931 13.1726 7.33582 13.2269 7.48514 13.4433C7.607 13.6198 7.5957 13.856 7.45768 14.0201ZM7.45768 8.94211L4.98215 11.259C4.903 11.3537 4.788 11.4111 4.66481 11.4176C4.5322 11.4124 4.40687 11.3554 4.31569 11.259L3.01448 9.92597C2.84153 9.73231 2.85568 9.4358 3.04619 9.25951C3.23129 9.07806 3.52755 9.07806 3.71265 9.25951L4.66475 10.2751L6.82293 8.24387C7.03931 8.09455 7.33582 8.14886 7.48514 8.36525C7.607 8.54178 7.5957 8.77797 7.45768 8.94211ZM16.6933 20.9389H9.39365C9.13073 20.9389 8.91757 20.7258 8.91757 20.4628C8.91757 20.1999 9.13073 19.9868 9.39365 19.9868H16.6933C16.9562 19.9868 17.1693 20.1999 17.1693 20.4628C17.1693 20.7258 16.9562 20.9389 16.6933 20.9389ZM16.6933 15.8609H9.39365C9.13073 15.8609 8.91757 15.6477 8.91757 15.3848C8.91757 15.1219 9.13073 14.9087 9.39365 14.9087H16.6933C16.9562 14.9087 17.1693 15.1219 17.1693 15.3848C17.1693 15.6477 16.9562 15.8609 16.6933 15.8609ZM16.6933 10.7829H9.39365C9.13073 10.7829 8.91757 10.5697 8.91757 10.3068C8.91757 10.0439 9.13073 9.83072 9.39365 9.83072H16.6933C16.9562 9.83072 17.1693 10.0439 17.1693 10.3068C17.1693 10.5698 16.9562 10.7829 16.6933 10.7829Z" fill="#08A652"/>
</svg>
