<svg width="102" height="36" viewBox="0 0 102 36" fill="none" xmlns="http://www.w3.org/2000/svg">
<path d="M8.6582 20L8.53431 21.0029L4.17614 20.673L8.6582 15.5L9.1582 17L8.6582 20Z" fill="#DE841E"/>
<path d="M20.0605 11.8867V14.6289H11.1543V11.8867H20.0605ZM12.1973 4.9375V22H8.68164V4.9375H12.1973ZM22.5684 4.9375V22H19.0645V4.9375H22.5684ZM25.627 4.9375H31.9902C33.2949 4.9375 34.416 5.13281 35.3535 5.52344C36.2988 5.91406 37.0254 6.49219 37.5332 7.25781C38.041 8.02344 38.2949 8.96484 38.2949 10.082C38.2949 10.9961 38.1387 11.7812 37.8262 12.4375C37.5215 13.0859 37.0879 13.6289 36.5254 14.0664C35.9707 14.4961 35.3184 14.8398 34.5684 15.0977L33.4551 15.6836H27.9238L27.9004 12.9414H32.0137C32.6309 12.9414 33.1426 12.832 33.5488 12.6133C33.9551 12.3945 34.2598 12.0898 34.4629 11.6992C34.6738 11.3086 34.7793 10.8555 34.7793 10.3398C34.7793 9.79297 34.6777 9.32031 34.4746 8.92188C34.2715 8.52344 33.9629 8.21875 33.5488 8.00781C33.1348 7.79688 32.6152 7.69141 31.9902 7.69141H29.1426V22H25.627V4.9375ZM35.166 22L31.2754 14.3945L34.9902 14.3711L38.9277 21.8359V22H35.166ZM47.4473 13.3516V16H40.8262V13.3516H47.4473ZM61.8496 11.8867V14.6289H52.9434V11.8867H61.8496ZM53.9863 4.9375V22H50.4707V4.9375H53.9863ZM64.3574 4.9375V22H60.8535V4.9375H64.3574ZM74.7051 18.9648V9.32031H78.0801V22H74.9043L74.7051 18.9648ZM75.0801 16.3633L76.0762 16.3398C76.0762 17.1836 75.9785 17.9688 75.7832 18.6953C75.5879 19.4141 75.2949 20.0391 74.9043 20.5703C74.5137 21.0938 74.0215 21.5039 73.4277 21.8008C72.834 22.0898 72.1348 22.2344 71.3301 22.2344C70.7129 22.2344 70.1426 22.1484 69.6191 21.9766C69.1035 21.7969 68.6582 21.5195 68.2832 21.1445C67.916 20.7617 67.627 20.2734 67.416 19.6797C67.2129 19.0781 67.1113 18.3555 67.1113 17.5117V9.32031H70.4863V17.5352C70.4863 17.9102 70.5293 18.2266 70.6152 18.4844C70.709 18.7422 70.8379 18.9531 71.002 19.1172C71.166 19.2812 71.3574 19.3984 71.5762 19.4688C71.8027 19.5391 72.0527 19.5742 72.3262 19.5742C73.0215 19.5742 73.5684 19.4336 73.9668 19.1523C74.373 18.8711 74.6582 18.4883 74.8223 18.0039C74.9941 17.5117 75.0801 16.9648 75.0801 16.3633ZM83.9629 12.0273V22H80.5879V9.32031H83.752L83.9629 12.0273ZM83.4707 15.2148H82.5566C82.5566 14.2773 82.6777 13.4336 82.9199 12.6836C83.1621 11.9258 83.502 11.2812 83.9395 10.75C84.377 10.2109 84.8965 9.80078 85.498 9.51953C86.1074 9.23047 86.7871 9.08594 87.5371 9.08594C88.1309 9.08594 88.6738 9.17188 89.166 9.34375C89.6582 9.51562 90.0801 9.78906 90.4316 10.1641C90.791 10.5391 91.0645 11.0352 91.252 11.6523C91.4473 12.2695 91.5449 13.0234 91.5449 13.9141V22H88.1465V13.9023C88.1465 13.3398 88.0684 12.9023 87.9121 12.5898C87.7559 12.2773 87.5254 12.0586 87.2207 11.9336C86.9238 11.8008 86.5566 11.7344 86.1191 11.7344C85.666 11.7344 85.2715 11.8242 84.9355 12.0039C84.6074 12.1836 84.334 12.4336 84.1152 12.7539C83.9043 13.0664 83.7441 13.4336 83.6348 13.8555C83.5254 14.2773 83.4707 14.7305 83.4707 15.2148ZM100.322 9.32031V11.7109H92.9395V9.32031H100.322ZM94.7676 6.19141H98.1426V18.1797C98.1426 18.5469 98.1895 18.8281 98.2832 19.0234C98.3848 19.2188 98.5332 19.3555 98.7285 19.4336C98.9238 19.5039 99.1699 19.5391 99.4668 19.5391C99.6777 19.5391 99.8652 19.5312 100.029 19.5156C100.201 19.4922 100.346 19.4688 100.463 19.4453L100.475 21.9297C100.186 22.0234 99.873 22.0977 99.5371 22.1523C99.2012 22.207 98.8301 22.2344 98.4238 22.2344C97.6816 22.2344 97.0332 22.1133 96.4785 21.8711C95.9316 21.6211 95.5098 21.2227 95.2129 20.6758C94.916 20.1289 94.7676 19.4102 94.7676 18.5195V6.19141Z" fill="white"/>
<g filter="url(#filter0_d_315_7273)">
<path d="M4.1582 21.124C4.1582 20.5032 4.66145 20 5.28224 20H54.522C55.014 20 55.4488 20.3199 55.5952 20.7896L58.7037 30.7637C58.9292 31.4874 58.3885 32.2222 57.6305 32.2222H5.28224C4.66145 32.2222 4.1582 31.719 4.1582 31.0982V21.124Z" fill="#FE9F34"/>
</g>
<path d="M18.334 23.3125V29H17.0605V24.3008H14.8965V29H13.627V23.3125H18.334ZM20.4355 25.5859V30.625H19.2168V24.7734H20.3535L20.4355 25.5859ZM23.0723 26.8398V26.9219C23.0723 27.2292 23.0371 27.5143 22.9668 27.7773C22.8965 28.0378 22.791 28.2656 22.6504 28.4609C22.5124 28.6562 22.3418 28.8086 22.1387 28.918C21.9355 29.0247 21.6999 29.0781 21.4316 29.0781C21.1764 29.0781 20.9551 29.0247 20.7676 28.918C20.5827 28.8086 20.4264 28.6576 20.2988 28.4648C20.1738 28.2695 20.0723 28.0469 19.9941 27.7969C19.9186 27.5443 19.86 27.2747 19.8184 26.9883V26.8281C19.86 26.5234 19.9199 26.2409 19.998 25.9805C20.0762 25.7201 20.1777 25.4948 20.3027 25.3047C20.4277 25.112 20.5827 24.9622 20.7676 24.8555C20.9525 24.7487 21.1725 24.6953 21.4277 24.6953C21.6934 24.6953 21.929 24.7461 22.1348 24.8477C22.3405 24.9492 22.5124 25.0951 22.6504 25.2852C22.791 25.4727 22.8965 25.6979 22.9668 25.9609C23.0371 26.224 23.0723 26.5169 23.0723 26.8398ZM21.8496 26.9219V26.8398C21.8496 26.668 21.8366 26.5104 21.8105 26.3672C21.7845 26.2214 21.7428 26.0951 21.6855 25.9883C21.6283 25.8789 21.5527 25.7943 21.459 25.7344C21.3652 25.6745 21.2507 25.6445 21.1152 25.6445C20.9694 25.6445 20.8457 25.668 20.7441 25.7148C20.6426 25.7617 20.5605 25.8307 20.498 25.9219C20.4355 26.0104 20.39 26.1198 20.3613 26.25C20.3353 26.3802 20.321 26.5286 20.3184 26.6953V27.125C20.321 27.3203 20.3483 27.4948 20.4004 27.6484C20.4551 27.7995 20.5397 27.918 20.6543 28.0039C20.7715 28.0872 20.9277 28.1289 21.123 28.1289C21.2611 28.1289 21.3757 28.099 21.4668 28.0391C21.5605 27.9766 21.6348 27.8893 21.6895 27.7773C21.7467 27.6654 21.7871 27.5365 21.8105 27.3906C21.8366 27.2448 21.8496 27.0885 21.8496 26.9219ZM25.7129 29.0781C25.377 29.0781 25.0762 29.0247 24.8105 28.918C24.5449 28.8112 24.3197 28.6641 24.1348 28.4766C23.9525 28.2865 23.8132 28.0677 23.7168 27.8203C23.6204 27.5729 23.5723 27.3086 23.5723 27.0273V26.8789C23.5723 26.5638 23.6165 26.2734 23.7051 26.0078C23.7936 25.7422 23.9225 25.5117 24.0918 25.3164C24.2637 25.1185 24.4746 24.9661 24.7246 24.8594C24.9746 24.75 25.2598 24.6953 25.5801 24.6953C25.8796 24.6953 26.1465 24.7448 26.3809 24.8438C26.6152 24.9401 26.8132 25.0794 26.9746 25.2617C27.1361 25.4414 27.2585 25.6589 27.3418 25.9141C27.4277 26.1667 27.4707 26.4505 27.4707 26.7656V27.2656H24.0645V26.4805H26.2754V26.3867C26.2754 26.2383 26.248 26.1081 26.1934 25.9961C26.1413 25.8841 26.0632 25.7982 25.959 25.7383C25.8574 25.6758 25.7285 25.6445 25.5723 25.6445C25.4238 25.6445 25.3001 25.6758 25.2012 25.7383C25.1022 25.8008 25.0228 25.8893 24.9629 26.0039C24.9056 26.1159 24.8639 26.2474 24.8379 26.3984C24.8118 26.5469 24.7988 26.707 24.7988 26.8789V27.0273C24.7988 27.1914 24.821 27.3411 24.8652 27.4766C24.9095 27.612 24.9746 27.7279 25.0605 27.8242C25.1465 27.9206 25.2507 27.9961 25.373 28.0508C25.4954 28.1055 25.6348 28.1328 25.791 28.1328C25.9837 28.1328 26.1673 28.0964 26.3418 28.0234C26.5163 27.9479 26.6673 27.8307 26.7949 27.6719L27.3652 28.3242C27.2793 28.4492 27.1582 28.5703 27.002 28.6875C26.8483 28.8021 26.6634 28.8958 26.4473 28.9688C26.2311 29.0417 25.9863 29.0781 25.7129 29.0781ZM30.6699 27.625L31.7051 24.7734H32.6738L31.0801 29H30.2637L28.6777 24.7734H29.6465L30.6699 27.625ZM29.3652 24.7734V29H28.1426V24.7734H29.3652ZM32.0176 29V24.7734H33.2363V29H32.0176ZM35.3809 27.3281L36.6738 24.7734H37.8926V29H36.6738V26.4375L35.3809 29H34.1582V24.7734H35.3809V27.3281ZM39.9551 28.5117L41.0605 24.7734H42.373L40.6738 29.6328C40.6374 29.7396 40.5879 29.8542 40.5254 29.9766C40.4655 30.099 40.3835 30.2161 40.2793 30.3281C40.1777 30.4401 40.0475 30.5312 39.8887 30.6016C39.7298 30.6719 39.5345 30.707 39.3027 30.707C39.1855 30.707 39.0944 30.7005 39.0293 30.6875C38.9668 30.6771 38.8835 30.6589 38.7793 30.6328L38.7754 29.7461C38.8092 29.7461 38.8392 29.7461 38.8652 29.7461C38.8939 29.7487 38.9225 29.75 38.9512 29.75C39.097 29.75 39.2142 29.7344 39.3027 29.7031C39.3939 29.6719 39.4642 29.625 39.5137 29.5625C39.5658 29.5026 39.6074 29.4258 39.6387 29.332L39.9551 28.5117ZM39.584 24.7734L40.459 27.7812L40.6074 29.0742L39.7832 29.1172L38.2715 24.7734H39.584ZM45.373 27.625L46.4082 24.7734H47.377L45.7832 29H44.9668L43.3809 24.7734H44.3496L45.373 27.625ZM44.0684 24.7734V29H42.8457V24.7734H44.0684ZM46.7207 29V24.7734H47.9395V29H46.7207Z" fill="white"/>
<defs>
<filter id="filter0_d_315_7273" x="0.158203" y="15" width="62.5977" height="20.2222" filterUnits="userSpaceOnUse" color-interpolation-filters="sRGB">
<feFlood flood-opacity="0" result="BackgroundImageFix"/>
<feColorMatrix in="SourceAlpha" type="matrix" values="0 0 0 0 0 0 0 0 0 0 0 0 0 0 0 0 0 0 127 0" result="hardAlpha"/>
<feOffset dy="-1"/>
<feGaussianBlur stdDeviation="2"/>
<feComposite in2="hardAlpha" operator="out"/>
<feColorMatrix type="matrix" values="0 0 0 0 0 0 0 0 0 0 0 0 0 0 0 0 0 0 0.25 0"/>
<feBlend mode="normal" in2="BackgroundImageFix" result="effect1_dropShadow_315_7273"/>
<feBlend mode="normal" in="SourceGraphic" in2="effect1_dropShadow_315_7273" result="shape"/>
</filter>
</defs>
</svg>
