<svg width="28" height="27" viewBox="0 0 28 27" fill="none" xmlns="http://www.w3.org/2000/svg">
<g clip-path="url(#clip0_460_6148)">
<path d="M10.8432 11.1585C13.9204 11.1585 16.4149 8.66401 16.4149 5.58684C16.4149 2.50967 13.9204 0.0151367 10.8432 0.0151367C7.76602 0.0151367 5.27148 2.50967 5.27148 5.58684C5.27148 8.66401 7.76602 11.1585 10.8432 11.1585Z" fill="#08A652"/>
<path d="M11.4007 19.5163C11.4007 17.1417 12.3401 14.9865 13.8589 13.3875H6.10757C3.18911 13.3875 0.814453 15.7621 0.814453 18.6806V22.5808C0.814453 23.0421 1.18887 23.4165 1.65021 23.4165H12.3111C11.7339 22.2364 11.4007 20.9159 11.4007 19.5163Z" fill="#08A652"/>
<path d="M20.3135 12.2732C16.3197 12.2732 13.0703 15.5226 13.0703 19.5164C13.0703 23.5102 16.3197 26.7596 20.3135 26.7596C24.3073 26.7596 27.5567 23.5102 27.5567 19.5164C27.5567 15.5226 24.3073 12.2732 20.3135 12.2732ZM22.7729 21.9758C22.5556 22.1931 22.2703 22.3023 21.985 22.3023C21.6998 22.3023 21.4145 22.1931 21.1972 21.9758L19.5257 20.3042C19.3162 20.0959 19.1992 19.8128 19.1992 19.5164V16.7306C19.1992 16.1143 19.6984 15.6162 20.3135 15.6162C20.9286 15.6162 21.4279 16.1143 21.4279 16.7306V19.0551L22.7729 20.4001C23.2086 20.8358 23.2086 21.5401 22.7729 21.9758Z" fill="#08A652"/>
</g>
<defs>
<clipPath id="clip0_460_6148">
<rect width="26.7442" height="26.7442" fill="white" transform="translate(0.814453 0.0153809)"/>
</clipPath>
</defs>
</svg>
