<svg width="22" height="20" viewBox="0 0 22 20" fill="none" xmlns="http://www.w3.org/2000/svg">
<path d="M15.176 3.52286L13.3103 0.326706C13.2216 0.174675 13.0757 0.0639481 12.9052 0.0200086C12.7356 -0.0221732 12.5537 0.00243283 12.4026 0.092948L6.69922 3.51495L15.176 3.52286Z" fill="black"/>
<path d="M2.63636 4.39372C2.15303 4.39372 1.75758 3.99827 1.75758 3.51494C1.75758 3.0316 2.15303 2.63615 2.63636 2.63615H5.59788L8.53303 0.878571H2.63636C1.33576 0.878571 0.254849 1.82766 0.0439394 3.07554C0.0263636 3.14584 0 3.21615 0 3.29524V16.6968C0 18.1468 1.18636 19.3331 2.63636 19.3331H17.5758C18.5424 19.3331 19.3333 18.5422 19.3333 17.5755V15.818H17.1364C14.957 15.818 13.1818 14.0428 13.1818 11.8634C13.1818 9.68403 14.957 7.90888 17.1364 7.90888H19.3333V6.1513C19.3333 5.18463 18.5424 4.39372 17.5758 4.39372H2.63636ZM16.697 2.63615C16.697 1.74857 16.0379 1.01039 15.1767 0.896146L16.697 3.51494V2.63615Z" fill="black"/>
<path d="M20.4318 9.22708H17.1364C15.6828 9.22708 14.5 10.4099 14.5 11.8634C14.5 13.317 15.6828 14.4998 17.1364 14.4998H20.4318C20.7956 14.4998 21.0909 14.2045 21.0909 13.8407V9.88617C21.0909 9.52235 20.7956 9.22708 20.4318 9.22708ZM17.1364 12.7422C16.6513 12.7422 16.2576 12.3485 16.2576 11.8634C16.2576 11.3784 16.6513 10.9847 17.1364 10.9847C17.6215 10.9847 18.0152 11.3784 18.0152 11.8634C18.0152 12.3485 17.6215 12.7422 17.1364 12.7422Z" fill="black"/>
</svg>
