 <svg widtd="25" height="23" viewBox="0 0 25 23" fill="none" xmlns="http://www.w3.org/2000/svg">
              <path
                d="M24.3129 12.4555H15.6485C15.2698 12.4555 14.9612 12.7641 14.9612 13.1427C14.9612 13.3356 15.0431 13.5093 15.1709 13.6346L21.272 19.7356C21.3973 19.8707 21.5783 19.9552 21.7761 19.9552C22.0148 19.9552 22.2245 19.8346 22.3475 19.6513C23.8475 17.9102 24.8121 15.6988 24.9858 13.2656C24.9955 13.2247 25.0003 13.1837 25.0003 13.1426C25.0003 12.7641 24.694 12.4555 24.3129 12.4555Z"
                fill="#08A652"/>
              <path
                d="M13.0318 0C12.6531 0.00231504 12.3469 0.308672 12.3469 0.687259V10.3164C12.3469 10.6974 12.6531 11.0061 13.0318 11.0061H22.6633C23.042 11.0061 23.3506 10.6974 23.3506 10.3164C23.0105 4.77485 18.5757 0.34008 13.0318 0Z"
                fill="#3362AB"/>
              <path
                d="M18.325 19.1738L11.2208 12.0696C11.1002 11.9466 11.0279 11.7753 11.0279 11.5897L11.0254 1.55537C11.0254 1.17678 10.7192 0.870499 10.3405 0.870499C4.56981 1.22262 0 6.0166 0 11.8743C0 17.9633 4.93644 22.9021 11.0254 22.9021C13.8034 22.9021 16.3403 21.8748 18.2792 20.1794C18.4287 20.0539 18.5228 19.866 18.5228 19.6561C18.5228 19.4704 18.4479 19.2992 18.325 19.1738Z"
                fill="#016F5D"/>
            </svg>
