<svg
  width="48"
  height="47"
  viewBox="0 0 48 47"
  fill="none"
  xmlns="http://www.w3.org/2000/svg"
>
  <rect
    x="0.5"
    y="0.5"
    width="47"
    height="45.6479"
    rx="22.8239"
    fill="white"
    stroke="#C83532"
  />
  <path
    d="M28.3357 26.3014L25.072 23.1296L28.3357 19.9578C28.6881 19.6154 28.6881 19.0641 28.3357 18.7217C27.9834 18.3792 27.4161 18.3792 27.0637 18.7217L23.8 21.8935L20.5363 18.7217C20.1839 18.3792 19.6166 18.3792 19.2643 18.7217C18.9119 19.0641 18.9119 19.6154 19.2643 19.9578L22.528 23.1296L19.2643 26.3014C18.9119 26.6439 18.9119 27.1952 19.2643 27.5376C19.6166 27.88 20.1839 27.88 20.5363 27.5376L23.8 24.3658L27.0637 27.5376C27.4161 27.88 27.9834 27.88 28.3357 27.5376C28.6856 27.1952 28.6856 26.6414 28.3357 26.3014Z"
    fill="#C83532"
  />
</svg>
