<svg
  width="13"
  height="13"
  viewBox="0 0 13 13"
  fill="none"
  xmlns="http://www.w3.org/2000/svg"
>
  <path
    d="M11.6742 10.0836L7.59297 6.00234L11.6742 1.92109C12.1148 1.48047 12.1148 0.771094 11.6742 0.330469C11.2336 -0.110156 10.5242 -0.110156 10.0836 0.330469L6.00234 4.41172L1.92109 0.330469C1.48047 -0.110156 0.771094 -0.110156 0.330469 0.330469C-0.110156 0.771094 -0.110156 1.48047 0.330469 1.92109L4.41172 6.00234L0.330469 10.0836C-0.110156 10.5242 -0.110156 11.2336 0.330469 11.6742C0.771094 12.1148 1.48047 12.1148 1.92109 11.6742L6.00234 7.59297L10.0836 11.6742C10.5242 12.1148 11.2336 12.1148 11.6742 11.6742C12.1117 11.2336 12.1117 10.5211 11.6742 10.0836Z"
    fill="#08A652"
  />
</svg>
