<svg width="62" height="62" viewBox="0 0 62 62" fill="none" xmlns="http://www.w3.org/2000/svg">
<path d="M46.3349 27.2471C45.1182 24.3059 42.9482 21.1091 39.9838 18.1447C39.6465 17.8114 39.3029 17.4845 38.9531 17.1643C39.2844 16.4513 39.575 15.7209 39.8153 14.9808C40.9855 11.3848 40.9739 7.657 39.7804 4.48919C39.6899 4.2487 39.5077 4.05399 39.2737 3.9479C39.0397 3.8418 38.7731 3.833 38.5326 3.92344C38.2921 4.01388 38.0974 4.19614 37.9913 4.43014C37.8852 4.66414 37.8764 4.9307 37.9669 5.17119C39.0034 7.93019 39.0054 11.2007 37.9708 14.384C37.8138 14.8684 37.6084 15.3411 37.4069 15.8119C35.2234 14.0256 32.9914 12.6674 30.8892 11.7955C30.5579 8.773 29.3373 5.97525 27.1808 3.81881C26.9981 3.64235 26.7534 3.5447 26.4994 3.54691C26.2454 3.54912 26.0024 3.651 25.8228 3.83061C25.6432 4.01023 25.5413 4.2532 25.5391 4.5072C25.5369 4.76121 25.6345 5.00592 25.811 5.18862C27.4288 6.80837 28.4208 8.85825 28.8335 11.0999C25.9195 10.3133 23.4027 10.5962 21.8411 12.1559C21.2464 12.766 20.821 13.5206 20.6069 14.3453C20.5798 14.3898 20.541 14.4228 20.5197 14.4731L16.2824 24.304L13.1959 31.4611L9.76269 39.4262L7.72444 44.1537L7.72251 44.1576L3.95407 52.8976C3.87745 53.0759 3.85588 53.2729 3.89213 53.4635C3.92839 53.6541 4.0208 53.8295 4.15751 53.9671C4.29687 54.1024 4.47286 54.1938 4.66367 54.2299C4.85447 54.2661 5.05169 54.2454 5.23088 54.1706L17.1581 49.0284L21.8934 46.9863L44.0351 37.4403C44.2657 37.3647 44.4788 37.262 44.6919 37.1574L44.9496 37.0469C44.9729 37.0373 44.9884 37.0159 45.0097 37.0043C45.3584 36.8028 45.6859 36.5684 45.9726 36.2816C47.5304 34.7239 47.8113 32.209 47.0286 29.295C49.278 29.7135 51.3279 30.7036 52.9379 32.3136C53.0277 32.4043 53.1345 32.4763 53.2522 32.5254C53.3699 32.5746 53.4963 32.5999 53.6238 32.5999C53.7514 32.5999 53.8777 32.5746 53.9954 32.5254C54.1132 32.4763 54.22 32.4043 54.3097 32.3136C54.4913 32.132 54.5933 31.8856 54.5933 31.6287C54.5933 31.3718 54.4913 31.1255 54.3097 30.9438C52.1629 28.799 49.3691 27.5861 46.3349 27.2471ZM23.2148 13.5237C23.8309 12.9096 24.7744 12.5957 25.9505 12.5957C26.8592 12.5957 27.9171 12.8049 29.0602 13.1808C29.1416 16.7788 27.8144 20.6634 25.1619 23.9862C22.1336 19.3517 21.5291 15.2113 23.2148 13.5237ZM6.70144 51.4271L9.07101 45.9304C10.7314 46.9263 12.3744 47.7264 13.9516 48.2999L6.70144 51.4271ZM16.6796 47.1239C14.5696 46.6356 12.2233 45.6165 9.83438 44.1576L10.5532 42.4913L11.6711 39.897C15.0637 42.4409 18.4969 44.206 21.5718 45.0139L16.6796 47.1239ZM24.9353 43.5666C21.5001 43.4988 16.8927 41.4489 12.4655 38.0525L14.3972 33.5711C14.4999 33.6757 14.5948 33.7842 14.6994 33.8888C18.7527 37.944 23.2729 40.9529 27.4618 42.4758L24.9353 43.5666ZM30.1917 41.2978C25.8091 40.269 20.5565 37.0063 16.0693 32.5171C15.784 32.2319 15.5037 31.9419 15.2284 31.6471L16.8288 27.9349L17.4178 26.5709C18.3884 27.7721 19.4269 28.9269 20.5158 30.0119C25.1929 34.689 30.4862 37.9866 35.0781 39.1898L30.1917 41.2978ZM38.4396 37.7444C33.7916 37.6282 27.3223 34.0845 21.8837 28.644C20.5995 27.353 19.4009 25.9796 18.2954 24.5326L20.7231 18.9022C21.6047 22.413 24.0789 26.5379 27.8357 30.2948C31.6041 34.0612 35.7349 36.5199 39.2534 37.3937L38.4396 37.7444ZM44.6048 34.9137C44.3398 35.1573 44.0316 35.3492 43.6961 35.4795L43.4403 35.5899C40.5089 36.58 34.7429 34.4604 29.2055 28.9249C28.1744 27.8846 27.2163 26.7743 26.338 25.6021C29.2985 22.0759 30.8621 17.9161 30.9744 13.9578C32.7259 14.7851 34.6111 15.9902 36.5234 17.6041C35.7071 19.0653 34.7033 20.4136 33.5378 21.6147C33.3579 21.7985 33.2584 22.0461 33.2611 22.3032C33.2638 22.5602 33.3686 22.8057 33.5523 22.9855C33.736 23.1654 33.9836 23.2649 34.2407 23.2622C34.4978 23.2594 34.7432 23.1547 34.9231 22.971C36.1073 21.7568 37.1409 20.4043 38.0018 18.9429C38.2071 19.1386 38.4125 19.3111 38.6159 19.5164C41.2238 22.1262 43.0393 24.7748 44.1669 27.1696C41.2664 27.2548 38.2362 28.0821 35.3668 29.7697C35.253 29.8319 35.1528 29.9164 35.0723 30.018C34.9918 30.1197 34.9324 30.2365 34.8979 30.3615C34.8633 30.4865 34.8542 30.6171 34.8711 30.7457C34.888 30.8743 34.9305 30.9982 34.9962 31.11C35.0618 31.2219 35.1493 31.3194 35.2533 31.3968C35.3574 31.4742 35.4759 31.53 35.6019 31.5607C35.7279 31.5915 35.8588 31.5966 35.9868 31.5759C36.1148 31.5551 36.2373 31.5088 36.3471 31.4398C39.1701 29.7813 42.1558 29.0199 44.9477 29.0838C45.8041 31.6917 45.6936 33.8229 44.6048 34.9137ZM6.92619 16.8698C7.56699 17.2361 8.3265 17.3345 9.03949 17.1437C9.75248 16.9528 10.3613 16.4881 10.7334 15.8507C11.024 15.3431 11.1383 14.7831 11.0957 14.2426C11.7345 14.1867 12.3504 13.9775 12.8911 13.6328C13.4318 13.2881 13.8813 12.818 14.2015 12.2624C14.7298 11.3444 14.8725 10.2542 14.5983 9.23109C14.3241 8.20795 13.6554 7.3353 12.7387 6.8045C12.5164 6.67604 12.2523 6.64112 12.0043 6.70743C11.7563 6.77374 11.5448 6.93585 11.4163 7.15809C11.2879 7.38034 11.253 7.64451 11.3193 7.8925C11.3856 8.14048 11.5477 8.35197 11.7699 8.48044C12.7523 9.05006 13.0913 10.3114 12.5256 11.2937C12.2506 11.7647 11.8008 12.1081 11.274 12.2493C10.7472 12.3904 10.1859 12.3179 9.71232 12.0474C9.60206 11.9773 9.47876 11.9302 9.34983 11.909C9.22091 11.8878 9.08903 11.8929 8.96213 11.924C8.83523 11.9551 8.71593 12.0115 8.6114 12.0899C8.50687 12.1683 8.41928 12.267 8.35389 12.3801C8.28851 12.4932 8.24668 12.6184 8.23093 12.7481C8.21517 12.8778 8.22582 13.0094 8.26222 13.1348C8.29862 13.2603 8.36003 13.3771 8.44275 13.4783C8.52547 13.5794 8.6278 13.6628 8.74357 13.7233C8.84422 13.7768 8.93307 13.8519 9.00481 13.9405C9.07654 14.0291 9.12971 14.1312 9.16112 14.2408C9.19253 14.3503 9.20155 14.4651 9.18763 14.5782C9.17372 14.6914 9.13716 14.8005 9.08013 14.8992C9.0231 14.9979 8.94678 15.0841 8.85572 15.1526C8.76465 15.2212 8.66071 15.2707 8.5501 15.2982C8.43949 15.3257 8.32447 15.3306 8.2119 15.3127C8.09934 15.2948 7.99154 15.2544 7.89494 15.1939C7.78468 15.1238 7.66138 15.0767 7.53246 15.0555C7.40354 15.0343 7.27166 15.0394 7.14476 15.0705C7.01785 15.1016 6.89855 15.158 6.79402 15.2364C6.6895 15.3148 6.6019 15.4135 6.53652 15.5266C6.47113 15.6397 6.42931 15.7649 6.41355 15.8946C6.3978 16.0243 6.40844 16.1559 6.44484 16.2813C6.48125 16.4068 6.54266 16.5236 6.62538 16.6248C6.7081 16.7259 6.81042 16.8092 6.92619 16.8698ZM46.7709 42.0031C46.3326 42.3545 46.0117 42.8309 45.8506 43.369C45.6288 43.3052 45.4019 43.2611 45.1724 43.2373C44.6506 43.1765 44.1219 43.2212 43.6177 43.3686C43.1135 43.5161 42.644 43.7633 42.2371 44.0956C41.4021 44.764 40.8828 45.7153 40.7666 46.7771C40.6503 47.8388 40.9564 48.8812 41.6249 49.7143C41.7027 49.8186 41.8008 49.9062 41.9132 49.9717C42.0256 50.0373 42.1501 50.0795 42.2792 50.0959C42.4083 50.1124 42.5393 50.1026 42.6646 50.0672C42.7898 50.0318 42.9067 49.9716 43.0081 49.8901C43.1095 49.8085 43.1935 49.7074 43.255 49.5927C43.3165 49.478 43.3543 49.3521 43.3661 49.2225C43.3778 49.0929 43.3634 48.9623 43.3235 48.8384C43.2837 48.7145 43.2193 48.5999 43.1342 48.5014C42.9639 48.2913 42.8369 48.0495 42.7605 47.7901C42.684 47.5306 42.6597 47.2586 42.6889 46.9897C42.7181 46.7209 42.8002 46.4604 42.9305 46.2234C43.0608 45.9864 43.2367 45.7775 43.4481 45.6088C43.8731 45.2666 44.4165 45.1073 44.959 45.1658C45.5015 45.2243 45.9985 45.4958 46.3408 45.9207C46.5048 46.1105 46.7362 46.2312 46.9861 46.2539C47.236 46.2766 47.4849 46.2015 47.6805 46.0443C47.8761 45.8871 48.0031 45.6602 48.0347 45.4112C48.0663 45.1623 48.0001 44.9108 47.8501 44.7098C47.7736 44.6238 47.7154 44.5213 47.679 44.4122C47.6426 44.303 47.6287 44.1876 47.6383 44.073C47.6479 43.9583 47.6806 43.8468 47.7346 43.7453C47.7887 43.6437 47.8627 43.5541 47.9524 43.4821C48.0421 43.41 48.1455 43.3569 48.2563 43.3261C48.3672 43.2952 48.4831 43.2872 48.5971 43.3026C48.7111 43.3179 48.8208 43.3563 48.9196 43.4153C49.0183 43.4744 49.104 43.5529 49.1714 43.6461C49.2509 43.746 49.3494 43.8291 49.4612 43.8909C49.5729 43.9526 49.6958 43.9916 49.8227 44.0056C49.9496 44.0197 50.078 44.0086 50.2005 43.9728C50.3231 43.9371 50.4374 43.8775 50.5368 43.7975C50.6363 43.7174 50.7189 43.6185 50.78 43.5064C50.8411 43.3943 50.8795 43.2712 50.8928 43.1443C50.9062 43.0173 50.8944 42.889 50.858 42.7666C50.8216 42.6442 50.7613 42.5303 50.6808 42.4312C50.4522 42.1463 50.1698 41.9092 49.8496 41.7334C49.5293 41.5577 49.1776 41.4468 48.8145 41.407C48.4514 41.3673 48.0841 41.3994 47.7334 41.5017C47.3827 41.604 47.0557 41.7743 46.7709 42.0031ZM46.953 19.4913C47.697 19.4913 48.4429 19.2084 49.0087 18.6426C49.5396 18.1117 49.7992 17.422 49.8321 16.7264C50.5516 16.7022 51.2356 16.4083 51.7483 15.903C52.2792 15.3721 52.5388 14.6824 52.5718 13.9868C53.2912 13.9626 53.9752 13.6686 54.4879 13.1634C55.0323 12.6181 55.3381 11.8791 55.3381 11.1087C55.3381 10.3382 55.0323 9.59919 54.4879 9.05394C54.3052 8.87747 54.0605 8.77983 53.8065 8.78203C53.5525 8.78424 53.3095 8.88612 53.1299 9.06574C52.9503 9.24535 52.8484 9.48833 52.8462 9.74233C52.844 9.99633 52.9417 10.241 53.1181 10.4237C53.2946 10.6065 53.3922 10.8512 53.39 11.1052C53.3878 11.3592 53.2859 11.6021 53.1063 11.7818C52.9267 11.9614 52.6837 12.0633 52.4297 12.0655C52.1757 12.0677 51.931 11.97 51.7483 11.7936C51.5656 11.6171 51.3209 11.5195 51.0669 11.5217C50.8129 11.5239 50.5699 11.6257 50.3903 11.8054C50.2107 11.985 50.1088 12.228 50.1066 12.482C50.1044 12.736 50.202 12.9807 50.3785 13.1634C50.555 13.3461 50.6526 13.5908 50.6504 13.8448C50.6482 14.0988 50.5463 14.3418 50.3667 14.5214C50.1871 14.701 49.9441 14.8029 49.6901 14.8051C49.4361 14.8073 49.1914 14.7097 49.0087 14.5332C48.826 14.3567 48.5813 14.2591 48.3273 14.2613C48.0733 14.2635 47.8303 14.3654 47.6507 14.545C47.4711 14.7246 47.3692 14.9676 47.367 15.2216C47.3648 15.4756 47.4624 15.7203 47.6389 15.903C47.8153 16.0857 47.913 16.3304 47.9108 16.5844C47.9086 16.8384 47.8067 17.0814 47.6271 17.261C47.4475 17.4406 47.2045 17.5425 46.9505 17.5447C46.6965 17.5469 46.4518 17.4493 46.2691 17.2728C46.0864 17.0963 45.8417 16.9987 45.5877 17.0009C45.3336 17.0031 45.0907 17.105 44.9111 17.2846C44.7314 17.4642 44.6296 17.7072 44.6274 17.9612C44.6251 18.2152 44.7228 18.4599 44.8993 18.6426C45.4444 19.1864 46.183 19.4916 46.953 19.4913ZM8.72226 31C10.3246 31 11.6285 29.6961 11.6285 28.0938C11.6285 26.4914 10.3246 25.1875 8.72226 25.1875C7.11994 25.1875 5.81601 26.4914 5.81601 28.0938C5.81601 29.6961 7.11994 31 8.72226 31ZM8.72226 27.125C9.25507 27.125 9.69101 27.5609 9.69101 28.0938C9.69101 28.6266 9.25507 29.0625 8.72226 29.0625C8.18944 29.0625 7.75351 28.6266 7.75351 28.0938C7.75351 27.5609 8.18944 27.125 8.72226 27.125ZM49.4098 5.8125C51.0121 5.8125 52.316 4.50856 52.316 2.90625C52.316 1.30394 51.0121 0 49.4098 0C47.8074 0 46.5035 1.30394 46.5035 2.90625C46.5035 4.50856 47.8074 5.8125 49.4098 5.8125ZM49.4098 1.9375C49.9426 1.9375 50.3785 2.37344 50.3785 2.90625C50.3785 3.43906 49.9426 3.875 49.4098 3.875C48.8769 3.875 48.441 3.43906 48.441 2.90625C48.441 2.37344 48.8769 1.9375 49.4098 1.9375ZM20.3473 5.8125C21.9496 5.8125 23.2535 4.50856 23.2535 2.90625C23.2535 1.30394 21.9496 0 20.3473 0C18.7449 0 17.441 1.30394 17.441 2.90625C17.441 4.50856 18.7449 5.8125 20.3473 5.8125ZM20.3473 1.9375C20.8801 1.9375 21.316 2.37344 21.316 2.90625C21.316 3.43906 20.8801 3.875 20.3473 3.875C19.8144 3.875 19.3785 3.43906 19.3785 2.90625C19.3785 2.37344 19.8144 1.9375 20.3473 1.9375ZM31.9723 48.4375C30.3699 48.4375 29.066 49.7414 29.066 51.3438C29.066 52.9461 30.3699 54.25 31.9723 54.25C33.5746 54.25 34.8785 52.9461 34.8785 51.3438C34.8785 49.7414 33.5746 48.4375 31.9723 48.4375ZM31.9723 52.3125C31.4394 52.3125 31.0035 51.8766 31.0035 51.3438C31.0035 50.8109 31.4394 50.375 31.9723 50.375C32.5051 50.375 32.941 50.8109 32.941 51.3438C32.941 51.8766 32.5051 52.3125 31.9723 52.3125Z" fill="black"/>
</svg>
