<svg width="18" height="18" viewBox="0 0 18 18" fill="none" xmlns="http://www.w3.org/2000/svg">
<path d="M14.3449 10.5214L14.3395 10.5268L14.3343 10.5323C13.774 11.1277 12.5233 12.074 11.3506 12.9157C10.7726 13.3305 10.2269 13.7107 9.81437 13.9978L9.78157 14.0206C9.59035 14.1537 9.42793 14.2668 9.30751 14.3519C9.24406 14.3967 9.18975 14.4356 9.14792 14.4665L9.14495 14.4687C9.13352 14.4771 9.11746 14.4889 9.09973 14.5027C9.04715 14.5286 9.00849 14.5466 8.97287 14.56C8.94362 14.5709 8.92834 14.574 8.92344 14.5748C8.91854 14.574 8.90326 14.5709 8.874 14.56C8.83863 14.5467 8.80025 14.5289 8.74823 14.5032C8.73152 14.4901 8.71629 14.4786 8.70508 14.4702L8.7026 14.4684C8.66102 14.4371 8.60692 14.3976 8.54346 14.3517C8.41616 14.2598 8.24216 14.1361 8.0364 13.99L7.98052 13.9503C7.57489 13.6623 7.05146 13.2905 6.49838 12.8891C5.32664 12.0386 4.06839 11.0878 3.50199 10.5214C2.28751 9.30697 2.14844 7.96625 2.14844 7.05C2.14844 5.08213 3.79356 3.5 5.69844 3.5C6.87611 3.5 7.92894 4.08793 8.59157 5.01562L8.99844 5.58523L9.4053 5.01562C10.0744 4.0789 11.131 3.5 12.1484 3.5C14.1223 3.5 15.6984 5.07614 15.6984 7.05C15.6984 7.96625 15.5594 9.30697 14.3449 10.5214Z" stroke="#08A652"/>
</svg>
