<svg width="45" height="11" viewBox="0 0 45 11" fill="none" xmlns="http://www.w3.org/2000/svg">
<path d="M0.609375 10V0.545454H3.17614V4.23864H6.57386V0.545454H9.14062V10H6.57386V6.30682H3.17614V10H0.609375ZM13.8125 10.1293C13.0431 10.1293 12.3845 9.97692 11.8366 9.67223C11.2888 9.36446 10.8687 8.93667 10.5763 8.38885C10.284 7.83795 10.1378 7.19934 10.1378 6.47301C10.1378 5.74669 10.284 5.10961 10.5763 4.56179C10.8687 4.01089 11.2888 3.5831 11.8366 3.27841C12.3845 2.97064 13.0431 2.81676 13.8125 2.81676C14.5819 2.81676 15.2405 2.97064 15.7884 3.27841C16.3362 3.5831 16.7563 4.01089 17.0487 4.56179C17.341 5.10961 17.4872 5.74669 17.4872 6.47301C17.4872 7.19934 17.341 7.83795 17.0487 8.38885C16.7563 8.93667 16.3362 9.36446 15.7884 9.67223C15.2405 9.97692 14.5819 10.1293 13.8125 10.1293ZM13.831 8.24574C14.0464 8.24574 14.2326 8.17341 14.3896 8.02876C14.5465 7.88411 14.6681 7.67791 14.7543 7.41016C14.8404 7.1424 14.8835 6.82386 14.8835 6.45455C14.8835 6.08215 14.8404 5.76361 14.7543 5.49893C14.6681 5.23118 14.5465 5.02498 14.3896 4.88033C14.2326 4.73568 14.0464 4.66335 13.831 4.66335C13.6032 4.66335 13.4078 4.73568 13.2447 4.88033C13.0816 5.02498 12.9569 5.23118 12.8707 5.49893C12.7846 5.76361 12.7415 6.08215 12.7415 6.45455C12.7415 6.82386 12.7846 7.1424 12.8707 7.41016C12.9569 7.67791 13.0816 7.88411 13.2447 8.02876C13.4078 8.17341 13.6032 8.24574 13.831 8.24574ZM18.5213 10V2.90909H21.6236C22.5746 2.90909 23.3224 3.07067 23.8672 3.39382C24.415 3.71697 24.6889 4.2017 24.6889 4.84801C24.6889 5.19886 24.535 5.50971 24.2273 5.78054C23.9226 6.05137 23.4794 6.23295 22.8977 6.32528C23.4332 6.34991 23.8672 6.44839 24.1996 6.62074C24.535 6.79001 24.7797 7.00237 24.9336 7.25781C25.0906 7.51018 25.169 7.77178 25.169 8.04261C25.169 8.47348 25.0521 8.83511 24.8182 9.12749C24.5843 9.41679 24.2396 9.6353 23.7841 9.78303C23.3286 9.92768 22.7685 10 22.1037 10H18.5213ZM20.8849 8.20881H22.1037C22.3099 8.20881 22.4715 8.15956 22.5884 8.06108C22.7085 7.96259 22.7685 7.82718 22.7685 7.65483C22.7685 7.47633 22.7085 7.33629 22.5884 7.23473C22.4715 7.13317 22.3099 7.08239 22.1037 7.08239H20.8849V8.20881ZM20.8849 5.78977H21.6974C21.8298 5.78977 21.9421 5.76977 22.0344 5.72976C22.1268 5.68667 22.1976 5.62666 22.2468 5.54972C22.2991 5.47277 22.3253 5.38044 22.3253 5.27273C22.3253 5.10961 22.2622 4.98343 22.136 4.89418C22.0129 4.80185 21.8421 4.75568 21.6236 4.75568H20.8849V5.78977ZM27.5731 4.82955H29.752C30.7646 4.82955 31.5617 5.06345 32.1434 5.53125C32.7251 5.99598 33.0174 6.63613 33.0205 7.4517C33.0174 7.97798 32.8836 8.43194 32.6189 8.81357C32.3573 9.19519 31.9818 9.48911 31.4925 9.69531C31.0062 9.89844 30.426 10 29.752 10H26.1512V2.90909H28.5518V8.09801H29.752C30.0136 8.09801 30.2291 8.03646 30.3983 7.91335C30.5676 7.78717 30.6538 7.62713 30.6569 7.43324C30.6538 7.22704 30.5676 7.0593 30.3983 6.93004C30.2291 6.7977 30.0136 6.73153 29.752 6.73153H27.5731V4.82955ZM33.5376 10V2.90909H36.0858V10H33.5376ZM39.7744 6.75L41.7503 2.90909H44.1508V10H41.7503V6.14062L39.7744 10H37.3738V2.90909H39.7744V6.75ZM41.6764 0.360795H43.2829C43.2799 0.960937 43.0506 1.44105 42.5951 1.80114C42.1396 2.15814 41.5256 2.33665 40.7531 2.33665C39.9745 2.33665 39.3574 2.15814 38.9019 1.80114C38.4464 1.44105 38.2202 0.960937 38.2233 0.360795H39.8113C39.8083 0.554687 39.8775 0.733191 40.0191 0.896306C40.1637 1.05634 40.4084 1.13636 40.7531 1.13636C41.0824 1.13636 41.3179 1.05788 41.4594 0.900923C41.601 0.743963 41.6733 0.56392 41.6764 0.360795Z" fill="url(#paint0_linear_1_395)"/>
<defs>
<linearGradient id="paint0_linear_1_395" x1="52" y1="6.5" x2="1.5" y2="6.5" gradientUnits="userSpaceOnUse">
<stop stop-color="#3EFF62"/>
<stop offset="1" stop-color="#08A652"/>
</linearGradient>
</defs>
</svg>
