<svg width="19" height="19" viewBox="0 0 19 19" fill="none" xmlns="http://www.w3.org/2000/svg">
<path d="M7.71883 14.5468C7.48272 14.5458 7.25635 14.4526 7.08797 14.2871L2.93172 10.1308C2.76441 9.9635 2.67041 9.73658 2.67041 9.49996C2.67041 9.26334 2.76441 9.03641 2.93172 8.8691C3.09904 8.70178 3.32596 8.60779 3.56258 8.60779C3.7992 8.60779 4.02613 8.70178 4.19344 8.8691L7.71883 12.3945L15.4005 4.71285C15.4833 4.63 15.5817 4.56429 15.6899 4.51945C15.7982 4.47461 15.9142 4.45154 16.0313 4.45154C16.1485 4.45154 16.2645 4.47461 16.3727 4.51945C16.481 4.56429 16.5793 4.63 16.6622 4.71285C16.745 4.79569 16.8108 4.89405 16.8556 5.00229C16.9004 5.11053 16.9235 5.22655 16.9235 5.34371C16.9235 5.46087 16.9004 5.57688 16.8556 5.68513C16.8108 5.79337 16.745 5.89172 16.6622 5.97457L8.34969 14.2871C8.18131 14.4526 7.95494 14.5458 7.71883 14.5468V14.5468Z" fill="#08A652"/>
</svg>
