<svg width="18" height="18" viewBox="0 0 18 18" fill="none" xmlns="http://www.w3.org/2000/svg">
  <path
    d="M6.75 10.5C7.78575 10.5 8.72325 10.08 9.402 9.40125C10.08 8.72325 10.5 7.78575 10.5 6.75C10.5 5.71425 10.08 4.77675 9.402 4.09875C8.72325 3.42 7.78575 3 6.75 3C5.71425 3 4.77675 3.42 4.098 4.09875C3.42 4.77675 3 5.71425 3 6.75C3 7.78575 3.42 8.72325 4.098 9.40125C4.77675 10.08 5.71425 10.5 6.75 10.5Z"
    fill="#08A652"/>
  <path
    d="M6.75 15.75C9.3885 15.75 11.25 15 11.25 14.25C11.25 12.75 9.4845 11.25 6.75 11.25C3.9375 11.25 2.25 12.75 2.25 14.25C2.25 15 3.9375 15.75 6.75 15.75Z"
    fill="#08A652"/>
  <path
    d="M15.75 9H14.25V7.5C14.25 7.08525 13.9148 6.75 13.5 6.75C13.0852 6.75 12.75 7.08525 12.75 7.5V9H11.25C10.8353 9 10.5 9.33525 10.5 9.75C10.5 10.1648 10.8353 10.5 11.25 10.5H12.75V12C12.75 12.4148 13.0852 12.75 13.5 12.75C13.9148 12.75 14.25 12.4148 14.25 12V10.5H15.75C16.1648 10.5 16.5 10.1648 16.5 9.75C16.5 9.33525 16.1648 9 15.75 9Z"
    fill="#08A652"/>
</svg>
