<svg width="22" height="22" viewBox="0 0 22 22" fill="none" xmlns="http://www.w3.org/2000/svg">
<path d="M19.4898 2.34924H6.05137C5.83176 1.89531 5.36512 1.5813 4.82621 1.5813C4.07683 1.5813 3.46719 2.1884 3.46719 2.93468C3.46719 3.68101 4.07683 4.2882 4.82621 4.2882C5.57554 4.2882 6.18522 3.68101 6.18522 2.93468C6.18522 2.87268 6.18067 2.81171 6.17246 2.7519H19.2884V4.65369H4.79136C4.78831 4.65369 4.78543 4.65447 4.78242 4.65459H3.66807C2.919 4.65459 2.30957 5.26161 2.30957 6.00777V7.1595C2.30957 7.2707 2.39972 7.36085 2.51088 7.36085H7.13943C7.25063 7.36085 7.34074 7.2707 7.34074 7.1595V6.00618C7.34074 5.63621 7.19065 5.30067 6.94813 5.05635H19.4898C19.601 5.05635 19.6911 4.9662 19.6911 4.855V2.55054C19.6911 2.43938 19.601 2.34924 19.4898 2.34924Z" fill="#08A652"/>
<path d="M17.9465 6.59264C18.0578 6.59264 18.1479 6.5025 18.1479 6.39129C18.1479 6.28009 18.0578 6.18994 17.9465 6.18994H9.45721C9.34605 6.18994 9.25586 6.28009 9.25586 6.39129C9.25586 6.5025 9.34605 6.59264 9.45721 6.59264H17.9465Z" fill="#08A652"/>
<path d="M8.29604 3.31982H7.52539V4.08682H8.29604V3.31982Z" fill="#08A652"/>
<path d="M9.84096 3.31982H9.07031V4.08682H9.84096V3.31982Z" fill="#08A652"/>
<path d="M11.3859 3.31982H10.6152V4.08682H11.3859V3.31982Z" fill="#08A652"/>
<path d="M12.9298 3.31982H12.1592V4.08682H12.9298V3.31982Z" fill="#08A652"/>
<path d="M19.4898 8.87863H6.0515C5.83193 8.4245 5.36521 8.11035 4.82621 8.11035C4.07683 8.11035 3.46719 8.71754 3.46719 9.46391C3.46719 10.2102 4.07683 10.8175 4.82621 10.8175C5.57554 10.8175 6.18522 10.2102 6.18522 9.46391C6.18522 9.40195 6.18067 9.34102 6.1725 9.28129H19.2884V11.183H5.68984C5.68623 11.183 5.68287 11.1838 5.67931 11.184H3.66807C2.919 11.184 2.30957 11.7909 2.30957 12.5369V13.6886C2.30957 13.7998 2.39972 13.8899 2.51088 13.8899H7.13943C7.25063 13.8899 7.34074 13.7998 7.34074 13.6886V12.5354C7.34074 12.1654 7.19061 11.8299 6.948 11.5856H19.4898C19.601 11.5856 19.6911 11.4954 19.6911 11.3842V9.07998C19.6911 8.96878 19.601 8.87863 19.4898 8.87863Z" fill="#08A652"/>
<path d="M17.9465 13.1219C18.0578 13.1219 18.1479 13.0318 18.1479 12.9206C18.1479 12.8094 18.0578 12.7192 17.9465 12.7192H9.45721C9.34605 12.7192 9.25586 12.8094 9.25586 12.9206C9.25586 13.0318 9.34605 13.1219 9.45721 13.1219H17.9465Z" fill="#08A652"/>
<path d="M8.29604 9.84888H7.52539V10.6159H8.29604V9.84888Z" fill="#08A652"/>
<path d="M9.84096 9.84888H9.07031V10.6159H9.84096V9.84888Z" fill="#08A652"/>
<path d="M11.3859 9.84888H10.6152V10.6159H11.3859V9.84888Z" fill="#08A652"/>
<path d="M12.9298 9.84888H12.1592V10.6159H12.9298V9.84888Z" fill="#08A652"/>
<path d="M19.4898 15.4076H6.05142C5.83185 14.9535 5.36516 14.6394 4.82621 14.6394C4.07683 14.6394 3.46719 15.2466 3.46719 15.993C3.46719 16.7392 4.07683 17.3464 4.82621 17.3464C5.57554 17.3464 6.18522 16.7392 6.18522 15.993C6.18522 15.931 6.18067 15.87 6.17246 15.8102H19.2884V17.712H5.68984C5.68679 17.712 5.68391 17.7128 5.6809 17.7129H3.66807C2.919 17.7129 2.30957 18.3199 2.30957 19.066V20.2178C2.30957 20.329 2.39972 20.4191 2.51088 20.4191H7.13943C7.25063 20.4191 7.34074 20.329 7.34074 20.2178V19.0645C7.34074 18.6945 7.19065 18.359 6.94813 18.1147H19.4898C19.601 18.1147 19.6911 18.0245 19.6911 17.9133V15.6089C19.6911 15.4977 19.601 15.4076 19.4898 15.4076Z" fill="#08A652"/>
<path d="M17.9465 19.248H9.45721C9.34605 19.248 9.25586 19.3382 9.25586 19.4494C9.25586 19.5606 9.34605 19.6507 9.45721 19.6507H17.9465C18.0578 19.6507 18.1479 19.5606 18.1479 19.4494C18.1479 19.3382 18.0578 19.248 17.9465 19.248Z" fill="#08A652"/>
<path d="M8.29604 16.3779H7.52539V17.1449H8.29604V16.3779Z" fill="#08A652"/>
<path d="M9.84096 16.3779H9.07031V17.1449H9.84096V16.3779Z" fill="#08A652"/>
<path d="M11.3859 16.3779H10.6152V17.1449H11.3859V16.3779Z" fill="#08A652"/>
<path d="M12.9298 16.3779H12.1592V17.1449H12.9298V16.3779Z" fill="#08A652"/>
</svg>
