<svg width="108" height="32" viewBox="0 0 108 32" fill="none" xmlns="http://www.w3.org/2000/svg">
<g opacity="0.5">
<path d="M5.5 24L8.86065 24L8.99985 31L0.6581 23.2605L2 24L5.5 24Z" fill="#CA2840"/>
<path d="M0 2.2072C0 0.988199 0.988198 0 2.2072 0H98.8962C99.8623 0 100.716 0.628198 101.003 1.55047L107.107 21.1361C107.55 22.557 106.489 24 105 24H2.2072C0.988192 24 0 23.0118 0 21.7928V2.2072Z" fill="#FF4560"/>
<path d="M26.0049 6.15656V8.13312H20.9736V17.5316H18.4346V6.15656H26.0049ZM20.0674 10.1878H22.6143C23.5205 10.1878 24.307 10.3388 24.9736 10.6409C25.6403 10.943 26.1533 11.3675 26.5127 11.9144C26.8721 12.456 27.0518 13.0915 27.0518 13.8206C27.0518 14.3675 26.9476 14.8675 26.7393 15.3206C26.5361 15.7737 26.2393 16.167 25.8486 16.5003C25.4632 16.8284 24.9971 17.0836 24.4502 17.2659C23.9085 17.443 23.2965 17.5316 22.6143 17.5316H18.4424V6.15656H20.9971V15.5628H22.6143C23.0309 15.5628 23.3799 15.4847 23.6611 15.3284C23.9424 15.167 24.1533 14.9534 24.2939 14.6878C24.4398 14.4222 24.5127 14.1279 24.5127 13.805C24.5127 13.4873 24.4398 13.206 24.2939 12.9612C24.1533 12.7112 23.9424 12.5159 23.6611 12.3753C23.3799 12.2295 23.0309 12.1566 22.6143 12.1566H20.0674V10.1878ZM32.8096 15.5159V11.8909C32.8096 11.6357 32.7705 11.417 32.6924 11.2347C32.6143 11.0524 32.4919 10.9092 32.3252 10.805C32.1585 10.7008 31.9424 10.6487 31.6768 10.6487C31.4528 10.6487 31.2575 10.6878 31.0908 10.7659C30.9294 10.8441 30.8044 10.956 30.7158 11.1019C30.6325 11.2477 30.5908 11.4274 30.5908 11.6409H28.1533C28.1533 11.2607 28.2393 10.9066 28.4111 10.5784C28.583 10.2503 28.8278 9.96124 29.1455 9.71124C29.4684 9.46124 29.8538 9.26853 30.3018 9.13312C30.7497 8.99249 31.2523 8.92218 31.8096 8.92218C32.471 8.92218 33.0596 9.03416 33.5752 9.25812C34.096 9.47687 34.5075 9.8076 34.8096 10.2503C35.1117 10.6878 35.2627 11.2399 35.2627 11.9066V15.4456C35.2627 15.956 35.2913 16.3571 35.3486 16.6487C35.4111 16.9352 35.4997 17.1852 35.6143 17.3987V17.5316H33.1533C33.0387 17.2868 32.9528 16.9847 32.8955 16.6253C32.8382 16.2607 32.8096 15.8909 32.8096 15.5159ZM33.1143 12.3753L33.1299 13.7191H31.9189C31.6481 13.7191 31.4137 13.7529 31.2158 13.8206C31.0231 13.8883 30.8669 13.9821 30.7471 14.1019C30.6273 14.2165 30.5387 14.3519 30.4814 14.5081C30.4294 14.6592 30.4033 14.8258 30.4033 15.0081C30.4033 15.18 30.445 15.3362 30.5283 15.4769C30.6117 15.6123 30.7262 15.7191 30.8721 15.7972C31.0179 15.8753 31.1872 15.9144 31.3799 15.9144C31.6976 15.9144 31.9684 15.8519 32.1924 15.7269C32.4215 15.6019 32.5986 15.4508 32.7236 15.2737C32.8486 15.0915 32.9111 14.9222 32.9111 14.7659L33.4971 15.7816C33.4033 15.9899 33.2887 16.206 33.1533 16.43C33.0179 16.6487 32.846 16.8545 32.6377 17.0472C32.4294 17.2347 32.1768 17.3883 31.8799 17.5081C31.5882 17.6279 31.2367 17.6878 30.8252 17.6878C30.2939 17.6878 29.8122 17.581 29.3799 17.3675C28.9476 17.1487 28.6012 16.8493 28.3408 16.4691C28.0856 16.0888 27.958 15.6513 27.958 15.1566C27.958 14.7138 28.0387 14.3206 28.2002 13.9769C28.3617 13.6331 28.6038 13.3415 28.9268 13.1019C29.2549 12.8623 29.6663 12.6826 30.1611 12.5628C30.6559 12.4378 31.234 12.3753 31.8955 12.3753H33.1143ZM40.7861 13.5003H39.083V12.4612H40.2236C40.4788 12.4612 40.682 12.4248 40.833 12.3519C40.9893 12.279 41.1012 12.1774 41.1689 12.0472C41.2419 11.917 41.2783 11.7659 41.2783 11.5941C41.2783 11.443 41.2497 11.2998 41.1924 11.1644C41.1403 11.029 41.0413 10.917 40.8955 10.8284C40.7497 10.7347 40.5413 10.6878 40.2705 10.6878C40.0465 10.6878 39.8486 10.7217 39.6768 10.7894C39.5101 10.8519 39.3773 10.943 39.2783 11.0628C39.1846 11.1826 39.1377 11.3336 39.1377 11.5159H36.6924C36.6924 10.9743 36.846 10.5107 37.1533 10.1253C37.4606 9.73989 37.8747 9.44562 38.3955 9.24249C38.9163 9.03416 39.4919 8.92999 40.1221 8.92999C40.6689 8.92999 41.1637 8.98468 41.6064 9.09406C42.0492 9.19822 42.4268 9.35447 42.7393 9.56281C43.0518 9.77114 43.2913 10.029 43.458 10.3362C43.6299 10.6383 43.7158 10.9899 43.7158 11.3909C43.7158 11.6774 43.6481 11.9482 43.5127 12.2034C43.3773 12.4586 43.182 12.6852 42.9268 12.8831C42.6715 13.0758 42.3617 13.2269 41.9971 13.3362C41.6377 13.4456 41.234 13.5003 40.7861 13.5003ZM39.083 12.9378H40.7861C41.2861 12.9378 41.7288 12.9873 42.1143 13.0862C42.4997 13.18 42.8226 13.3206 43.083 13.5081C43.3434 13.6956 43.5387 13.9274 43.6689 14.2034C43.8044 14.4743 43.8721 14.7868 43.8721 15.1409C43.8721 15.542 43.7783 15.9013 43.5908 16.2191C43.4085 16.5316 43.1507 16.7972 42.8174 17.0159C42.484 17.2347 42.0882 17.4013 41.6299 17.5159C41.1715 17.6305 40.6689 17.6878 40.1221 17.6878C39.5387 17.6878 38.9736 17.5941 38.4268 17.4066C37.8799 17.2191 37.432 16.93 37.083 16.5394C36.734 16.1487 36.5596 15.6461 36.5596 15.0316H39.0049C39.0049 15.193 39.0492 15.3415 39.1377 15.4769C39.2314 15.6123 39.3721 15.7217 39.5596 15.805C39.7471 15.8883 39.9867 15.93 40.2783 15.93C40.5648 15.93 40.7913 15.8831 40.958 15.7894C41.1299 15.6904 41.2523 15.5654 41.3252 15.4144C41.3981 15.2633 41.4346 15.1071 41.4346 14.9456C41.4346 14.706 41.3877 14.5159 41.2939 14.3753C41.2054 14.2295 41.07 14.1227 40.8877 14.055C40.7106 13.9821 40.4893 13.9456 40.2236 13.9456H39.083V12.9378ZM44.7627 13.3909V13.2269C44.7627 12.6071 44.8512 12.0368 45.0283 11.5159C45.2054 10.9899 45.4658 10.5342 45.8096 10.1487C46.1533 9.76333 46.5752 9.46385 47.0752 9.25031C47.5752 9.03156 48.1481 8.92218 48.7939 8.92218C49.4502 8.92218 50.0283 9.03156 50.5283 9.25031C51.0335 9.46385 51.458 9.76333 51.8018 10.1487C52.1455 10.5342 52.4059 10.9899 52.583 11.5159C52.7601 12.0368 52.8486 12.6071 52.8486 13.2269V13.3909C52.8486 14.0055 52.7601 14.5758 52.583 15.1019C52.4059 15.6227 52.1455 16.0784 51.8018 16.4691C51.458 16.8545 51.0361 17.154 50.5361 17.3675C50.0361 17.581 49.4606 17.6878 48.8096 17.6878C48.1637 17.6878 47.5882 17.581 47.083 17.3675C46.5778 17.154 46.1533 16.8545 45.8096 16.4691C45.4658 16.0784 45.2054 15.6227 45.0283 15.1019C44.8512 14.5758 44.7627 14.0055 44.7627 13.3909ZM47.208 13.2269V13.3909C47.208 13.7243 47.234 14.0368 47.2861 14.3284C47.3434 14.6201 47.4346 14.8753 47.5596 15.0941C47.6846 15.3128 47.8486 15.4847 48.0518 15.6097C48.2601 15.7295 48.5127 15.7894 48.8096 15.7894C49.1064 15.7894 49.3564 15.7295 49.5596 15.6097C49.7627 15.4847 49.9268 15.3128 50.0518 15.0941C50.1768 14.8753 50.2653 14.6201 50.3174 14.3284C50.3747 14.0368 50.4033 13.7243 50.4033 13.3909V13.2269C50.4033 12.8987 50.3747 12.5915 50.3174 12.305C50.2653 12.0133 50.1768 11.7555 50.0518 11.5316C49.9268 11.3076 49.7601 11.1331 49.5518 11.0081C49.3486 10.8831 49.096 10.8206 48.7939 10.8206C48.5023 10.8206 48.2549 10.8831 48.0518 11.0081C47.8486 11.1331 47.6846 11.3076 47.5596 11.5316C47.4346 11.7555 47.3434 12.0133 47.2861 12.305C47.234 12.5915 47.208 12.8987 47.208 13.2269ZM58.4111 14.0394H55.7861L55.7705 12.4925H57.9424C58.1924 12.4925 58.3955 12.4665 58.5518 12.4144C58.708 12.3571 58.82 12.2737 58.8877 12.1644C58.9606 12.055 58.9971 11.9248 58.9971 11.7737C58.9971 11.6227 58.9736 11.4977 58.9268 11.3987C58.8799 11.2946 58.807 11.2112 58.708 11.1487C58.6143 11.081 58.4971 11.0342 58.3564 11.0081C58.2158 10.9769 58.0518 10.9612 57.8643 10.9612H56.7314V17.5316H54.2861V9.07843H57.8643C58.4163 9.07843 58.9111 9.12791 59.3486 9.22687C59.7913 9.32062 60.1663 9.46645 60.4736 9.66437C60.7861 9.85708 61.0257 10.1019 61.1924 10.3987C61.359 10.6904 61.4424 11.0368 61.4424 11.4378C61.4424 11.6982 61.3799 11.943 61.2549 12.1722C61.1351 12.4013 60.9554 12.6045 60.7158 12.7816C60.4814 12.9586 60.1924 13.1045 59.8486 13.2191C59.5049 13.3284 59.109 13.3961 58.6611 13.4222L58.4111 14.0394ZM58.4111 17.5316H55.2236L56.0127 15.6487H58.4111C58.6559 15.6487 58.8564 15.6201 59.0127 15.5628C59.1689 15.5003 59.2835 15.4118 59.3564 15.2972C59.4346 15.1774 59.4736 15.0316 59.4736 14.8597C59.4736 14.6982 59.4398 14.5576 59.3721 14.4378C59.3096 14.3128 59.2002 14.2165 59.0439 14.1487C58.8877 14.0758 58.6768 14.0394 58.4111 14.0394H56.3252L56.3408 12.4925H58.6455L59.208 13.1175C59.833 13.154 60.3434 13.2685 60.7393 13.4612C61.1403 13.6487 61.4346 13.8857 61.6221 14.1722C61.8148 14.4586 61.9111 14.7737 61.9111 15.1175C61.9111 15.5185 61.8356 15.8701 61.6846 16.1722C61.5335 16.4743 61.307 16.7269 61.0049 16.93C60.708 17.1279 60.3408 17.279 59.9033 17.3831C59.471 17.4821 58.9736 17.5316 58.4111 17.5316ZM64.8018 11.4925H67.2236C68.0153 11.4925 68.6924 11.6201 69.2549 11.8753C69.8174 12.1305 70.2497 12.4873 70.5518 12.9456C70.8538 13.404 71.0049 13.9352 71.0049 14.5394C71.0049 14.9717 70.9189 15.3727 70.7471 15.7425C70.5804 16.1071 70.333 16.4222 70.0049 16.6878C69.682 16.9534 69.2861 17.1618 68.8174 17.3128C68.3486 17.4586 67.8174 17.5316 67.2236 17.5316H63.3018V9.07843H65.7549V15.6487H67.2236C67.5465 15.6487 67.8044 15.5993 67.9971 15.5003C68.195 15.3961 68.3382 15.2581 68.4268 15.0862C68.5205 14.9144 68.5674 14.7295 68.5674 14.5316C68.5674 14.318 68.5205 14.1253 68.4268 13.9534C68.3382 13.7763 68.195 13.6383 67.9971 13.5394C67.8044 13.4352 67.5465 13.3831 67.2236 13.3831H64.8018V11.4925ZM74.7627 9.07843V17.5316H72.3096V9.07843H74.7627ZM79.0127 14.1878L81.5986 9.07843H84.0361V17.5316H81.5986V12.4066L79.0127 17.5316H76.5674V9.07843H79.0127V14.1878ZM81.458 5.59406H83.1611C83.1611 6.05239 83.0465 6.45864 82.8174 6.81281C82.5882 7.16697 82.2627 7.44301 81.8408 7.64093C81.4242 7.83885 80.9294 7.93781 80.3564 7.93781C79.4971 7.93781 78.8148 7.72166 78.3096 7.28937C77.8044 6.85187 77.5518 6.28676 77.5518 5.59406H79.2471C79.2471 5.85968 79.3304 6.09666 79.4971 6.30499C79.6689 6.50812 79.9554 6.60968 80.3564 6.60968C80.7627 6.60968 81.0465 6.50812 81.208 6.30499C81.3747 6.09666 81.458 5.85968 81.458 5.59406Z" fill="white"/>
</g>
</svg>
