<svg width="107" height="32" viewBox="0 0 107 32" fill="none" xmlns="http://www.w3.org/2000/svg">
<path d="M5.75 17.8082L9 24L9 31L0.658247 23.2605L5.75 17.8082Z" fill="#DE841E"/>
<path d="M0 2.2072C0 0.988199 0.988198 0 2.2072 0H97.961C98.9292 0 99.7843 0.630944 100.07 1.55602L106.117 21.1416C106.556 22.5614 105.494 24 104.008 24H2.2072C0.988196 24 0 23.0118 0 21.7928V2.2072Z" fill="#FE9F34"/>
<path d="M23.8564 6.15656V17.5316H21.3096V8.13312H16.9814V17.5316H14.4424V6.15656H23.8564ZM28.0596 10.7034V20.7816H25.6221V9.07843H27.8955L28.0596 10.7034ZM33.333 13.2112V13.3753C33.333 13.9899 33.2627 14.5602 33.1221 15.0862C32.9814 15.6071 32.7705 16.0628 32.4893 16.4534C32.2132 16.8441 31.8721 17.1487 31.4658 17.3675C31.0596 17.581 30.5882 17.6878 30.0518 17.6878C29.5413 17.6878 29.0986 17.581 28.7236 17.3675C28.3538 17.1487 28.0413 16.8467 27.7861 16.4612C27.5361 16.0706 27.333 15.6253 27.1768 15.1253C27.0257 14.6201 26.9085 14.081 26.8252 13.5081V13.1878C26.9085 12.5784 27.0283 12.0133 27.1846 11.4925C27.3408 10.9717 27.5439 10.5211 27.7939 10.1409C28.0439 9.75551 28.3538 9.45603 28.7236 9.24249C29.0934 9.02895 29.5335 8.92218 30.0439 8.92218C30.5752 8.92218 31.0465 9.02374 31.458 9.22687C31.8695 9.42999 32.2132 9.72166 32.4893 10.1019C32.7705 10.4769 32.9814 10.9274 33.1221 11.4534C33.2627 11.9795 33.333 12.5654 33.333 13.2112ZM30.8877 13.3753V13.2112C30.8877 12.8675 30.8617 12.5524 30.8096 12.2659C30.7575 11.9743 30.6742 11.7217 30.5596 11.5081C30.445 11.2894 30.2939 11.1201 30.1064 11.0003C29.9189 10.8805 29.6898 10.8206 29.4189 10.8206C29.1273 10.8206 28.8799 10.8675 28.6768 10.9612C28.4736 11.055 28.3096 11.193 28.1846 11.3753C28.0596 11.5524 27.9684 11.7711 27.9111 12.0316C27.859 12.292 27.8304 12.5888 27.8252 12.9222V13.7816C27.8304 14.1722 27.8851 14.5211 27.9893 14.8284C28.0986 15.1305 28.2679 15.3675 28.4971 15.5394C28.7314 15.706 29.0439 15.7894 29.4346 15.7894C29.7106 15.7894 29.9398 15.7295 30.1221 15.6097C30.3096 15.4847 30.458 15.3102 30.5674 15.0862C30.682 14.8623 30.7627 14.6045 30.8096 14.3128C30.8617 14.0211 30.8877 13.7086 30.8877 13.3753ZM38.6143 17.6878C37.9424 17.6878 37.3408 17.581 36.8096 17.3675C36.2783 17.154 35.8278 16.8597 35.458 16.4847C35.0934 16.1045 34.8148 15.667 34.6221 15.1722C34.4294 14.6774 34.333 14.1487 34.333 13.5862V13.2894C34.333 12.6592 34.4215 12.0784 34.5986 11.5472C34.7757 11.0159 35.0335 10.555 35.3721 10.1644C35.7158 9.76853 36.1377 9.46385 36.6377 9.25031C37.1377 9.03156 37.708 8.92218 38.3486 8.92218C38.9476 8.92218 39.4814 9.02114 39.9502 9.21906C40.4189 9.41176 40.8148 9.69041 41.1377 10.055C41.4606 10.4144 41.7054 10.8493 41.8721 11.3597C42.0439 11.8649 42.1299 12.4326 42.1299 13.0628V14.0628H35.3174V12.4925H39.7393V12.305C39.7393 12.0081 39.6846 11.7477 39.5752 11.5237C39.471 11.2998 39.3148 11.1279 39.1064 11.0081C38.9033 10.8831 38.6455 10.8206 38.333 10.8206C38.0361 10.8206 37.7887 10.8831 37.5908 11.0081C37.3929 11.1331 37.234 11.3102 37.1143 11.5394C36.9997 11.7633 36.9163 12.0263 36.8643 12.3284C36.8122 12.6253 36.7861 12.9456 36.7861 13.2894V13.5862C36.7861 13.9144 36.8304 14.2138 36.9189 14.4847C37.0075 14.7555 37.1377 14.9873 37.3096 15.18C37.4814 15.3727 37.6898 15.5237 37.9346 15.6331C38.1794 15.7425 38.458 15.7972 38.7705 15.7972C39.1559 15.7972 39.5231 15.7243 39.8721 15.5784C40.221 15.4274 40.5231 15.193 40.7783 14.8753L41.9189 16.18C41.7471 16.43 41.5049 16.6722 41.1924 16.9066C40.8851 17.1357 40.5153 17.3232 40.083 17.4691C39.6507 17.6149 39.1611 17.6878 38.6143 17.6878ZM48.5283 14.7816L50.5986 9.07843H52.5361L49.3486 17.5316H47.7158L44.5439 9.07843H46.4814L48.5283 14.7816ZM45.9189 9.07843V17.5316H43.4736V9.07843H45.9189ZM51.2236 17.5316V9.07843H53.6611V17.5316H51.2236ZM57.9502 14.1878L60.5361 9.07843H62.9736V17.5316H60.5361V12.4066L57.9502 17.5316H55.5049V9.07843H57.9502V14.1878ZM67.0986 16.555L69.3096 9.07843H71.9346L68.5361 18.7972C68.4632 19.0107 68.3643 19.2399 68.2393 19.4847C68.1195 19.7295 67.9554 19.9638 67.7471 20.1878C67.5439 20.4118 67.2835 20.5941 66.9658 20.7347C66.6481 20.8753 66.2575 20.9456 65.7939 20.9456C65.5596 20.9456 65.3773 20.9326 65.2471 20.9066C65.1221 20.8857 64.9554 20.8493 64.7471 20.7972L64.7393 19.0237C64.807 19.0237 64.8669 19.0237 64.9189 19.0237C64.9762 19.029 65.0335 19.0316 65.0908 19.0316C65.3825 19.0316 65.6169 19.0003 65.7939 18.9378C65.9762 18.8753 66.1169 18.7816 66.2158 18.6566C66.32 18.5368 66.4033 18.3831 66.4658 18.1956L67.0986 16.555ZM66.3564 9.07843L68.1064 15.0941L68.4033 17.68L66.7549 17.7659L63.7314 9.07843H66.3564ZM77.9346 14.7816L80.0049 9.07843H81.9424L78.7549 17.5316H77.1221L73.9502 9.07843H75.8877L77.9346 14.7816ZM75.3252 9.07843V17.5316H72.8799V9.07843H75.3252ZM80.6299 17.5316V9.07843H83.0674V17.5316H80.6299Z" fill="white"/>
</svg>
