<svg width="136" height="32" viewBox="0 0 136 32" fill="none" xmlns="http://www.w3.org/2000/svg">
<path d="M5.75 17.8082L9 24L9 31L0.658247 23.2605L5.75 17.8082Z" fill="#00612D"/>
<path d="M0 2.2072C0 0.988199 0.988198 0 2.2072 0H125.076C125.984 0 126.799 0.55581 127.131 1.40085L134.817 20.9864C135.386 22.4343 134.318 24 132.763 24H2.2072C0.988193 24 0 23.0118 0 21.7928V2.2072Z" fill="#08A652"/>
<path d="M13.9814 6.15656V17.5316H11.4424V6.15656H13.9814ZM20.6143 6.15656L16.3877 12.93H13.4814L13.1689 10.6566H15.0596L17.5361 6.15656H20.6143ZM17.9814 17.5316L15.0596 12.5003L16.8643 10.7503L20.9971 17.5316H17.9814ZM27.3721 9.07843V10.9769H23.2002V9.07843H27.3721ZM29.0986 9.07843V17.5316H26.6611V9.07843H29.0986ZM22.583 9.07843H24.9736L24.7393 13.3831C24.708 13.9925 24.6403 14.5263 24.5361 14.9847C24.4372 15.443 24.3018 15.8336 24.1299 16.1566C23.9632 16.4795 23.7627 16.7425 23.5283 16.9456C23.2939 17.1487 23.0257 17.2972 22.7236 17.3909C22.4268 17.4847 22.1012 17.5316 21.7471 17.5316H21.0049L20.9658 15.6331L21.2549 15.6019C21.4111 15.5862 21.5465 15.5394 21.6611 15.4612C21.7809 15.3831 21.8825 15.2711 21.9658 15.1253C22.0544 14.9795 22.1299 14.792 22.1924 14.5628C22.2549 14.3336 22.3044 14.0654 22.3408 13.7581C22.3825 13.4456 22.4111 13.0862 22.4268 12.68L22.583 9.07843ZM35.1689 15.5159V11.8909C35.1689 11.6357 35.1299 11.417 35.0518 11.2347C34.9736 11.0524 34.8512 10.9092 34.6846 10.805C34.5179 10.7008 34.3018 10.6487 34.0361 10.6487C33.8122 10.6487 33.6169 10.6878 33.4502 10.7659C33.2887 10.8441 33.1637 10.956 33.0752 11.1019C32.9919 11.2477 32.9502 11.4274 32.9502 11.6409H30.5127C30.5127 11.2607 30.5986 10.9066 30.7705 10.5784C30.9424 10.2503 31.1872 9.96124 31.5049 9.71124C31.8278 9.46124 32.2132 9.26853 32.6611 9.13312C33.109 8.99249 33.6117 8.92218 34.1689 8.92218C34.8304 8.92218 35.4189 9.03416 35.9346 9.25812C36.4554 9.47687 36.8669 9.8076 37.1689 10.2503C37.471 10.6878 37.6221 11.2399 37.6221 11.9066V15.4456C37.6221 15.956 37.6507 16.3571 37.708 16.6487C37.7705 16.9352 37.859 17.1852 37.9736 17.3987V17.5316H35.5127C35.3981 17.2868 35.3122 16.9847 35.2549 16.6253C35.1976 16.2607 35.1689 15.8909 35.1689 15.5159ZM35.4736 12.3753L35.4893 13.7191H34.2783C34.0075 13.7191 33.7731 13.7529 33.5752 13.8206C33.3825 13.8883 33.2262 13.9821 33.1064 14.1019C32.9867 14.2165 32.8981 14.3519 32.8408 14.5081C32.7887 14.6592 32.7627 14.8258 32.7627 15.0081C32.7627 15.18 32.8044 15.3362 32.8877 15.4769C32.971 15.6123 33.0856 15.7191 33.2314 15.7972C33.3773 15.8753 33.5465 15.9144 33.7393 15.9144C34.057 15.9144 34.3278 15.8519 34.5518 15.7269C34.7809 15.6019 34.958 15.4508 35.083 15.2737C35.208 15.0915 35.2705 14.9222 35.2705 14.7659L35.8564 15.7816C35.7627 15.9899 35.6481 16.206 35.5127 16.43C35.3773 16.6487 35.2054 16.8545 34.9971 17.0472C34.7887 17.2347 34.5361 17.3883 34.2393 17.5081C33.9476 17.6279 33.596 17.6878 33.1846 17.6878C32.6533 17.6878 32.1715 17.581 31.7393 17.3675C31.307 17.1487 30.9606 16.8493 30.7002 16.4691C30.445 16.0888 30.3174 15.6513 30.3174 15.1566C30.3174 14.7138 30.3981 14.3206 30.5596 13.9769C30.721 13.6331 30.9632 13.3415 31.2861 13.1019C31.6143 12.8623 32.0257 12.6826 32.5205 12.5628C33.0153 12.4378 33.5934 12.3753 34.2549 12.3753H35.4736ZM42.7549 15.7894C43.0153 15.7894 43.2419 15.7399 43.4346 15.6409C43.6273 15.542 43.7757 15.404 43.8799 15.2269C43.9893 15.0446 44.0439 14.8258 44.0439 14.5706H46.3408C46.3408 15.1852 46.182 15.7269 45.8643 16.1956C45.5518 16.6644 45.1299 17.0316 44.5986 17.2972C44.0674 17.5576 43.4684 17.6878 42.8018 17.6878C42.1455 17.6878 41.5726 17.581 41.083 17.3675C40.5934 17.1487 40.1846 16.8441 39.8564 16.4534C39.5283 16.0628 39.2809 15.6097 39.1143 15.0941C38.9528 14.5732 38.8721 14.0107 38.8721 13.4066V13.2034C38.8721 12.6045 38.9528 12.0446 39.1143 11.5237C39.2809 11.0029 39.5283 10.5472 39.8564 10.1566C40.1846 9.76593 40.5908 9.46385 41.0752 9.25031C41.5648 9.03156 42.1377 8.92218 42.7939 8.92218C43.4867 8.92218 44.0986 9.05499 44.6299 9.32062C45.1663 9.58624 45.5856 9.96906 45.8877 10.4691C46.1898 10.9638 46.3408 11.5602 46.3408 12.2581H44.0439C44.0439 11.9873 43.9945 11.7451 43.8955 11.5316C43.8018 11.3128 43.6559 11.1409 43.458 11.0159C43.2653 10.8857 43.0257 10.8206 42.7393 10.8206C42.4424 10.8206 42.1976 10.8857 42.0049 11.0159C41.8174 11.1409 41.6742 11.3154 41.5752 11.5394C41.4762 11.7633 41.4085 12.0185 41.3721 12.305C41.3356 12.5862 41.3174 12.8857 41.3174 13.2034V13.4066C41.3174 13.7295 41.3356 14.0368 41.3721 14.3284C41.4085 14.6149 41.4762 14.8675 41.5752 15.0862C41.6794 15.305 41.8252 15.4769 42.0127 15.6019C42.2002 15.7269 42.4476 15.7894 42.7549 15.7894ZM51.083 15.7894C51.3434 15.7894 51.57 15.7399 51.7627 15.6409C51.9554 15.542 52.1038 15.404 52.208 15.2269C52.3174 15.0446 52.3721 14.8258 52.3721 14.5706H54.6689C54.6689 15.1852 54.5101 15.7269 54.1924 16.1956C53.8799 16.6644 53.458 17.0316 52.9268 17.2972C52.3955 17.5576 51.7965 17.6878 51.1299 17.6878C50.4736 17.6878 49.9007 17.581 49.4111 17.3675C48.9215 17.1487 48.5127 16.8441 48.1846 16.4534C47.8564 16.0628 47.609 15.6097 47.4424 15.0941C47.2809 14.5732 47.2002 14.0107 47.2002 13.4066V13.2034C47.2002 12.6045 47.2809 12.0446 47.4424 11.5237C47.609 11.0029 47.8564 10.5472 48.1846 10.1566C48.5127 9.76593 48.9189 9.46385 49.4033 9.25031C49.8929 9.03156 50.4658 8.92218 51.1221 8.92218C51.8148 8.92218 52.4268 9.05499 52.958 9.32062C53.4945 9.58624 53.9137 9.96906 54.2158 10.4691C54.5179 10.9638 54.6689 11.5602 54.6689 12.2581H52.3721C52.3721 11.9873 52.3226 11.7451 52.2236 11.5316C52.1299 11.3128 51.984 11.1409 51.7861 11.0159C51.5934 10.8857 51.3538 10.8206 51.0674 10.8206C50.7705 10.8206 50.5257 10.8857 50.333 11.0159C50.1455 11.1409 50.0023 11.3154 49.9033 11.5394C49.8044 11.7633 49.7367 12.0185 49.7002 12.305C49.6637 12.5862 49.6455 12.8857 49.6455 13.2034V13.4066C49.6455 13.7295 49.6637 14.0368 49.7002 14.3284C49.7367 14.6149 49.8044 14.8675 49.9033 15.0862C50.0075 15.305 50.1533 15.4769 50.3408 15.6019C50.5283 15.7269 50.7757 15.7894 51.083 15.7894ZM58.2939 14.1878L60.8799 9.07843H63.3174V17.5316H60.8799V12.4066L58.2939 17.5316H55.8486V9.07843H58.2939V14.1878ZM72.208 9.07843V17.5316H69.7627V9.07843H72.208ZM71.0049 12.6331V14.5316C70.8643 14.6149 70.6611 14.693 70.3955 14.7659C70.1299 14.8388 69.8512 14.8987 69.5596 14.9456C69.2679 14.9925 69.0127 15.0159 68.7939 15.0159C67.945 15.0159 67.2184 14.904 66.6143 14.68C66.0153 14.4508 65.5544 14.0967 65.2314 13.6175C64.9085 13.1383 64.7471 12.5185 64.7471 11.7581V9.07843H67.1846V11.7581C67.1846 12.1175 67.2367 12.3961 67.3408 12.5941C67.4502 12.792 67.6221 12.93 67.8564 13.0081C68.0908 13.081 68.4033 13.1175 68.7939 13.1175C69.0387 13.1175 69.2783 13.0993 69.5127 13.0628C69.7471 13.0211 69.9867 12.9638 70.2314 12.8909C70.4814 12.818 70.7393 12.7321 71.0049 12.6331ZM77.7705 17.6878C77.0986 17.6878 76.4971 17.581 75.9658 17.3675C75.4346 17.154 74.984 16.8597 74.6143 16.4847C74.2497 16.1045 73.971 15.667 73.7783 15.1722C73.5856 14.6774 73.4893 14.1487 73.4893 13.5862V13.2894C73.4893 12.6592 73.5778 12.0784 73.7549 11.5472C73.932 11.0159 74.1898 10.555 74.5283 10.1644C74.8721 9.76853 75.2939 9.46385 75.7939 9.25031C76.2939 9.03156 76.8643 8.92218 77.5049 8.92218C78.1038 8.92218 78.6377 9.02114 79.1064 9.21906C79.5752 9.41176 79.971 9.69041 80.2939 10.055C80.6169 10.4144 80.8617 10.8493 81.0283 11.3597C81.2002 11.8649 81.2861 12.4326 81.2861 13.0628V14.0628H74.4736V12.4925H78.8955V12.305C78.8955 12.0081 78.8408 11.7477 78.7314 11.5237C78.6273 11.2998 78.471 11.1279 78.2627 11.0081C78.0596 10.8831 77.8018 10.8206 77.4893 10.8206C77.1924 10.8206 76.945 10.8831 76.7471 11.0081C76.5492 11.1331 76.3903 11.3102 76.2705 11.5394C76.1559 11.7633 76.0726 12.0263 76.0205 12.3284C75.9684 12.6253 75.9424 12.9456 75.9424 13.2894V13.5862C75.9424 13.9144 75.9867 14.2138 76.0752 14.4847C76.1637 14.7555 76.2939 14.9873 76.4658 15.18C76.6377 15.3727 76.846 15.5237 77.0908 15.6331C77.3356 15.7425 77.6143 15.7972 77.9268 15.7972C78.3122 15.7972 78.6794 15.7243 79.0283 15.5784C79.3773 15.4274 79.6794 15.193 79.9346 14.8753L81.0752 16.18C80.9033 16.43 80.6611 16.6722 80.3486 16.9066C80.0413 17.1357 79.6715 17.3232 79.2393 17.4691C78.807 17.6149 78.3174 17.6878 77.7705 17.6878ZM86.0049 15.7894C86.2653 15.7894 86.4919 15.7399 86.6846 15.6409C86.8773 15.542 87.0257 15.404 87.1299 15.2269C87.2393 15.0446 87.2939 14.8258 87.2939 14.5706H89.5908C89.5908 15.1852 89.432 15.7269 89.1143 16.1956C88.8018 16.6644 88.3799 17.0316 87.8486 17.2972C87.3174 17.5576 86.7184 17.6878 86.0518 17.6878C85.3955 17.6878 84.8226 17.581 84.333 17.3675C83.8434 17.1487 83.4346 16.8441 83.1064 16.4534C82.7783 16.0628 82.5309 15.6097 82.3643 15.0941C82.2028 14.5732 82.1221 14.0107 82.1221 13.4066V13.2034C82.1221 12.6045 82.2028 12.0446 82.3643 11.5237C82.5309 11.0029 82.7783 10.5472 83.1064 10.1566C83.4346 9.76593 83.8408 9.46385 84.3252 9.25031C84.8148 9.03156 85.3877 8.92218 86.0439 8.92218C86.7367 8.92218 87.3486 9.05499 87.8799 9.32062C88.4163 9.58624 88.8356 9.96906 89.1377 10.4691C89.4398 10.9638 89.5908 11.5602 89.5908 12.2581H87.2939C87.2939 11.9873 87.2445 11.7451 87.1455 11.5316C87.0518 11.3128 86.9059 11.1409 86.708 11.0159C86.5153 10.8857 86.2757 10.8206 85.9893 10.8206C85.6924 10.8206 85.4476 10.8857 85.2549 11.0159C85.0674 11.1409 84.9242 11.3154 84.8252 11.5394C84.7262 11.7633 84.6585 12.0185 84.6221 12.305C84.5856 12.5862 84.5674 12.8857 84.5674 13.2034V13.4066C84.5674 13.7295 84.5856 14.0368 84.6221 14.3284C84.6585 14.6149 84.7262 14.8675 84.8252 15.0862C84.9294 15.305 85.0752 15.4769 85.2627 15.6019C85.4502 15.7269 85.6976 15.7894 86.0049 15.7894ZM93.4033 9.07843V17.5316H90.958V9.07843H93.4033ZM98.8877 9.07843L95.333 14.4691H93.0283L92.7471 12.2034H94.2002L95.7783 9.07843H98.8877ZM95.8564 17.5316L94.0205 14.0237L96.2236 12.93L99.1455 17.5316H95.8564ZM102.31 14.1878L104.896 9.07843H107.333V17.5316H104.896V12.4066L102.31 17.5316H99.8643V9.07843H102.31V14.1878ZM111.325 14.1878L113.911 9.07843H116.349V17.5316H113.911V12.4066L111.325 17.5316H108.88V9.07843H111.325V14.1878ZM113.771 5.59406H115.474C115.474 6.05239 115.359 6.45864 115.13 6.81281C114.901 7.16697 114.575 7.44301 114.153 7.64093C113.737 7.83885 113.242 7.93781 112.669 7.93781C111.81 7.93781 111.127 7.72166 110.622 7.28937C110.117 6.85187 109.864 6.28676 109.864 5.59406H111.56C111.56 5.85968 111.643 6.09666 111.81 6.30499C111.981 6.50812 112.268 6.60968 112.669 6.60968C113.075 6.60968 113.359 6.50812 113.521 6.30499C113.687 6.09666 113.771 5.85968 113.771 5.59406Z" fill="white"/>
</svg>
