<svg width="11" height="10" viewBox="0 0 11 10" fill="none" xmlns="http://www.w3.org/2000/svg">
<path d="M9.85906 9.11492C9.95295 9.20972 10.0056 9.33775 10.0056 9.47117C10.0056 9.6046 9.95295 9.73263 9.85906 9.82742C9.76349 9.91983 9.63575 9.97149 9.50281 9.97149C9.36987 9.97149 9.24213 9.91983 9.14656 9.82742L5.00281 5.67742L0.859063 9.82742C0.763493 9.91983 0.635753 9.97149 0.502813 9.97149C0.369872 9.97149 0.242133 9.91983 0.146563 9.82742C0.0526718 9.73263 0 9.6046 0 9.47117C0 9.33775 0.0526718 9.20972 0.146563 9.11492L4.29656 4.97117L0.146563 0.827422C0.0668311 0.730275 0.0260851 0.606943 0.0322502 0.481417C0.0384152 0.35589 0.0910504 0.237145 0.179918 0.148278C0.268785 0.0594102 0.387531 0.00677496 0.513057 0.000609924C0.638583 -0.00555511 0.761915 0.0351908 0.859063 0.114922L5.00281 4.26492L9.14656 0.114922C9.24371 0.0351908 9.36704 -0.00555511 9.49257 0.000609924C9.61809 0.00677496 9.73684 0.0594102 9.82571 0.148278C9.91457 0.237145 9.96721 0.35589 9.97338 0.481417C9.97954 0.606943 9.93879 0.730275 9.85906 0.827422L5.70906 4.97117L9.85906 9.11492Z" fill="#C30A0A"/>
</svg>
