<svg width="25" height="23" viewBox="0 0 25 23" fill="none" xmlns="http://www.w3.org/2000/svg">
<path d="M15.4965 1.78321C15.1954 1.25415 14.7596 0.814241 14.2334 0.508229C13.7072 0.202218 13.1093 0.0410156 12.5006 0.0410156C11.8919 0.0410156 11.294 0.202218 10.7678 0.508229C10.2416 0.814241 9.80584 1.25415 9.5048 1.78321L0.431881 17.9478C0.143775 18.4551 -0.00516791 19.0294 0.000136908 19.6128C0.00544173 20.1961 0.164806 20.7677 0.46209 21.2697C0.76374 21.7875 1.19691 22.2164 1.71771 22.513C2.23851 22.8095 2.82843 22.9631 3.42771 22.9582H21.5735C22.1728 22.9631 22.7628 22.8095 23.2836 22.513C23.8044 22.2164 24.2375 21.7875 24.5392 21.2697C24.8365 20.7677 24.9958 20.1961 25.0011 19.6128C25.0064 19.0294 24.8575 18.4551 24.5694 17.9478L15.4965 1.78321ZM12.5006 18.7915C12.2946 18.7915 12.0932 18.7305 11.9219 18.616C11.7506 18.5015 11.6171 18.3388 11.5383 18.1485C11.4594 17.9582 11.4388 17.7487 11.479 17.5467C11.5192 17.3446 11.6184 17.159 11.7641 17.0133C11.9097 16.8676 12.0953 16.7684 12.2974 16.7282C12.4995 16.688 12.7089 16.7087 12.8993 16.7875C13.0896 16.8663 13.2523 16.9999 13.3667 17.1712C13.4812 17.3425 13.5423 17.5439 13.5423 17.7499C13.5423 18.0261 13.4326 18.2911 13.2372 18.4864C13.0418 18.6818 12.7769 18.7915 12.5006 18.7915ZM13.5423 13.5832C13.5423 13.8595 13.4326 14.1244 13.2372 14.3198C13.0418 14.5151 12.7769 14.6249 12.5006 14.6249C12.2244 14.6249 11.9594 14.5151 11.7641 14.3198C11.5687 14.1244 11.459 13.8595 11.459 13.5832V7.33321C11.459 7.05694 11.5687 6.79199 11.7641 6.59664C11.9594 6.40129 12.2244 6.29154 12.5006 6.29154C12.7769 6.29154 13.0418 6.40129 13.2372 6.59664C13.4326 6.79199 13.5423 7.05694 13.5423 7.33321V13.5832Z" fill="#FE9F34"/>
</svg>
